<svg width="467" height="329" viewBox="0 0 467 329" fill="none" xmlns="http://www.w3.org/2000/svg">
<path d="M69.603 51.6775C76.9313 51.6775 82.872 45.7386 82.872 38.4127C82.872 31.0868 76.9313 25.1479 69.603 25.1479C62.2747 25.1479 56.334 31.0868 56.334 38.4127C56.334 45.7386 62.2747 51.6775 69.603 51.6775Z" fill="#E6E8F0"/>
<path d="M161.657 76.8249C168.985 76.8249 174.926 70.8861 174.926 63.5602C174.926 56.2342 168.985 50.2954 161.657 50.2954C154.328 50.2954 148.388 56.2342 148.388 63.5602C148.388 70.8861 154.328 76.8249 161.657 76.8249Z" fill="#E6E8F0"/>
<path d="M239.612 26.5295C246.941 26.5295 252.881 20.5907 252.881 13.2648C252.881 5.93883 246.941 0 239.612 0C232.284 0 226.343 5.93883 226.343 13.2648C226.343 20.5907 232.284 26.5295 239.612 26.5295Z" fill="#E6E8F0"/>
<path d="M288.265 82.9045C295.593 82.9045 301.534 76.9657 301.534 69.6398C301.534 62.3138 295.593 56.375 288.265 56.375C280.937 56.375 274.996 62.3138 274.996 69.6398C274.996 76.9657 280.937 82.9045 288.265 82.9045Z" fill="#E6E8F0"/>
<path d="M222.473 148.123C229.801 148.123 235.742 142.184 235.742 134.859C235.742 127.533 229.801 121.594 222.473 121.594C215.145 121.594 209.204 127.533 209.204 134.859C209.204 142.184 215.145 148.123 222.473 148.123Z" fill="#E6E8F0"/>
<path d="M138.989 179.627C146.317 179.627 152.258 173.688 152.258 166.362C152.258 159.036 146.317 153.098 138.989 153.098C131.66 153.098 125.72 159.036 125.72 166.362C125.72 173.688 131.66 179.627 138.989 179.627Z" fill="#E6E8F0"/>
<path d="M227.449 228.817C234.777 228.817 240.718 222.878 240.718 215.552C240.718 208.226 234.777 202.288 227.449 202.288C220.12 202.288 214.18 208.226 214.18 215.552C214.18 222.878 220.12 228.817 227.449 228.817Z" fill="#E6E8F0"/>
<path d="M322.543 256.452C329.872 256.452 335.812 250.513 335.812 243.187C335.812 235.861 329.872 229.922 322.543 229.922C315.215 229.922 309.274 235.861 309.274 243.187C309.274 250.513 315.215 256.452 322.543 256.452Z" fill="#E6E8F0"/>
<path d="M433.671 250.372C441 250.372 446.94 244.433 446.94 237.108C446.94 229.782 441 223.843 433.671 223.843C426.343 223.843 420.402 229.782 420.402 237.108C420.402 244.433 426.343 250.372 433.671 250.372Z" fill="#E6E8F0"/>
<path d="M296.138 243.809L105.064 272.368C101.428 272.911 97.7136 272.469 94.3076 271.087C90.9017 269.704 87.9293 267.433 85.7009 264.51C83.4724 261.586 82.0697 258.119 81.639 254.468C81.2083 250.818 81.7656 247.119 83.2525 243.757L156.258 78.7251C157.658 75.561 159.835 72.8021 162.586 70.7046C165.338 68.6071 168.575 67.239 171.997 66.7275C175.419 66.216 178.915 66.5777 182.16 67.7788C185.405 68.98 188.293 70.9817 190.558 73.5981L308.629 210.071C311.033 212.851 312.648 216.225 313.303 219.842C313.959 223.459 313.632 227.185 312.355 230.632C311.079 234.079 308.901 237.12 306.048 239.438C303.195 241.756 299.773 243.266 296.138 243.809Z" fill="#2A85F5"/>
<path d="M111.913 276.104C108.422 276.082 104.991 275.192 101.93 273.514C98.8681 271.836 96.2721 269.423 94.3756 266.491C92.4791 263.56 91.3416 260.203 91.0658 256.723C90.7899 253.242 91.3844 249.748 92.7954 246.555L165.8 81.5237C167.234 78.2819 169.464 75.4552 172.283 73.3061C175.102 71.157 178.418 69.7553 181.924 69.2312C185.43 68.707 189.011 69.0776 192.335 70.3083C195.659 71.539 198.618 73.59 200.937 76.2707L319.007 212.743C321.471 215.59 323.125 219.047 323.796 222.753C324.468 226.458 324.132 230.275 322.824 233.807C321.516 237.338 319.284 240.453 316.361 242.827C313.438 245.201 309.932 246.747 306.207 247.303L115.133 275.863C114.068 276.023 112.991 276.103 111.913 276.104ZM185.074 69.9957C184.07 69.9961 183.068 70.071 182.074 70.2197C178.732 70.7102 175.57 72.042 172.883 74.0899C170.197 76.1379 168.075 78.8348 166.716 81.9277L93.7164 246.959C92.2658 250.238 91.7222 253.847 92.1425 257.409C92.5627 260.971 93.9314 264.354 96.1055 267.206C98.2797 270.058 101.18 272.274 104.503 273.623C107.825 274.972 111.45 275.404 114.996 274.874L306.069 246.315C309.616 245.784 312.956 244.312 315.739 242.05C318.523 239.789 320.648 236.822 321.893 233.459C323.139 230.096 323.458 226.46 322.819 222.931C322.18 219.402 320.605 216.11 318.258 213.398L200.181 76.9247C198.311 74.75 195.993 73.0051 193.385 71.8092C190.778 70.6133 187.943 69.9947 185.074 69.9957Z" fill="#0C0C0C"/>
<path d="M181.818 147.111L177.663 124.976L202.349 121.286L204.849 143.668L209.076 195.413L192.909 197.829L181.818 147.111ZM189.905 224.131C188.594 215.359 193.911 207.649 202.445 206.373C210.979 205.097 218.322 210.915 219.633 219.688C220.933 228.402 215.618 236.11 207.081 237.388C198.544 238.666 191.208 232.849 189.905 224.131Z" fill="white"/>
</svg>
