<svg width="467" height="329" viewBox="0 0 467 329" fill="none" xmlns="http://www.w3.org/2000/svg">
<path d="M69.603 51.6772C76.9313 51.6772 82.872 45.7384 82.872 38.4125C82.872 31.0865 76.9313 25.1477 69.603 25.1477C62.2747 25.1477 56.334 31.0865 56.334 38.4125C56.334 45.7384 62.2747 51.6772 69.603 51.6772Z" fill="#E6E8F0"/>
<path d="M161.657 76.8252C168.985 76.8252 174.926 70.8863 174.926 63.5604C174.926 56.2345 168.985 50.2957 161.657 50.2957C154.328 50.2957 148.388 56.2345 148.388 63.5604C148.388 70.8863 154.328 76.8252 161.657 76.8252Z" fill="#E6E8F0"/>
<path d="M239.612 26.5295C246.941 26.5295 252.881 20.5907 252.881 13.2648C252.881 5.93883 246.941 0 239.612 0C232.284 0 226.343 5.93883 226.343 13.2648C226.343 20.5907 232.284 26.5295 239.612 26.5295Z" fill="#E6E8F0"/>
<path d="M288.265 82.9048C295.593 82.9048 301.534 76.9659 301.534 69.64C301.534 62.3141 295.593 56.3752 288.265 56.3752C280.937 56.3752 274.996 62.3141 274.996 69.64C274.996 76.9659 280.937 82.9048 288.265 82.9048Z" fill="#E6E8F0"/>
<path d="M222.473 148.123C229.801 148.123 235.742 142.184 235.742 134.858C235.742 127.532 229.801 121.594 222.473 121.594C215.145 121.594 209.204 127.532 209.204 134.858C209.204 142.184 215.145 148.123 222.473 148.123Z" fill="#E6E8F0"/>
<path d="M138.989 179.627C146.317 179.627 152.258 173.688 152.258 166.362C152.258 159.036 146.317 153.097 138.989 153.097C131.66 153.097 125.72 159.036 125.72 166.362C125.72 173.688 131.66 179.627 138.989 179.627Z" fill="#E6E8F0"/>
<path d="M227.449 228.817C234.777 228.817 240.718 222.878 240.718 215.552C240.718 208.226 234.777 202.288 227.449 202.288C220.12 202.288 214.18 208.226 214.18 215.552C214.18 222.878 220.12 228.817 227.449 228.817Z" fill="#E6E8F0"/>
<path d="M322.543 256.452C329.872 256.452 335.812 250.513 335.812 243.187C335.812 235.861 329.872 229.922 322.543 229.922C315.215 229.922 309.274 235.861 309.274 243.187C309.274 250.513 315.215 256.452 322.543 256.452Z" fill="#E6E8F0"/>
<path d="M433.671 250.372C441 250.372 446.94 244.433 446.94 237.108C446.94 229.782 441 223.843 433.671 223.843C426.343 223.843 420.402 229.782 420.402 237.108C420.402 244.433 426.343 250.372 433.671 250.372Z" fill="#E6E8F0"/>
<path d="M302.665 208.475L268.541 175.132C266.88 173.496 264.909 172.201 262.741 171.32C260.573 170.439 258.251 169.991 255.908 170H255.788C253.427 170.007 251.091 170.477 248.914 171.383C246.738 172.29 244.765 173.614 243.11 175.28C235.48 182.923 231.14 193.195 231.003 203.938C230.866 214.681 234.943 225.058 242.375 232.888C242.735 233.274 243.11 233.645 243.484 234.016C245.56 236.057 247.851 237.872 250.318 239.429C257.064 243.743 264.931 246.026 272.962 246H273.217C278.73 245.981 284.184 244.881 289.264 242.763C294.344 240.645 298.95 237.551 302.814 233.66C306.163 230.297 308.028 225.758 308 221.036C307.972 216.315 306.053 211.798 302.665 208.475ZM300.686 231.568C294.351 237.885 286.009 241.847 277.066 242.787C268.124 243.728 259.127 241.588 251.592 236.73C249.437 235.318 247.424 233.704 245.582 231.909C238.23 224.722 234.063 214.939 233.998 204.711C233.934 194.483 237.977 184.649 245.238 177.372C246.618 175.98 248.264 174.873 250.081 174.117C251.897 173.361 253.847 172.97 255.818 172.967H255.908C257.859 172.96 259.792 173.334 261.597 174.066C263.402 174.799 265.044 175.877 266.428 177.238L300.552 210.596C303.376 213.361 304.977 217.122 305.002 221.054C305.028 224.986 303.476 228.768 300.686 231.568Z" fill="#3F3D56"/>
<path d="M191.65 97.9883L157.526 64.1985C154.167 60.8575 149.624 58.9881 144.893 59.0001H144.788C142.424 59.0096 140.085 59.4885 137.906 60.4091C135.727 61.3296 133.752 62.6737 132.094 64.3637C125.787 70.7861 121.697 79.0652 120.424 87.9876C119.151 96.9099 120.762 106.006 125.021 113.944L125.036 113.959C126.793 117.206 128.975 120.202 131.525 122.869C131.81 123.199 132.139 123.53 132.469 123.86C140.305 131.658 150.906 136.024 161.947 136H162.217C167.73 135.977 173.184 134.859 178.265 132.711C183.345 130.563 187.95 127.427 191.814 123.485C193.474 121.8 194.786 119.804 195.675 117.61C196.565 115.417 197.015 113.07 197 110.702C196.984 108.335 196.504 105.993 195.586 103.812C194.668 101.63 193.33 99.6514 191.65 97.9882V97.9883ZM189.671 121.381C186.084 125.04 181.81 127.949 177.095 129.943C172.38 131.936 167.319 132.974 162.202 132.995H161.947C154.263 132.992 146.751 130.711 140.356 126.439C133.961 122.167 128.969 116.095 126.007 108.986C123.046 101.877 122.247 94.0493 123.711 86.4865C125.176 78.9237 128.838 71.9638 134.238 66.4822C137.031 63.6504 140.832 62.0456 144.805 62.0202C148.778 61.9949 152.598 63.551 155.428 66.347L189.552 100.122C192.375 102.928 193.973 106.741 193.995 110.727C194.017 114.712 192.463 118.544 189.671 121.381L189.671 121.381Z" fill="#3F3D56"/>
<path d="M305 218.891L267.742 181.76C265.299 179.331 262.001 177.979 258.571 178C255.141 178.022 251.859 179.415 249.446 181.875C246.428 184.952 244.04 188.599 242.419 192.608C240.798 196.617 239.976 200.909 240.001 205.239C240.025 209.569 240.895 213.851 242.56 217.841C244.226 221.832 246.654 225.452 249.707 228.494C252.76 231.537 256.378 233.942 260.352 235.573C264.327 237.204 268.582 238.029 272.873 237.999C277.164 237.97 281.407 237.088 285.359 235.403C289.312 233.717 292.897 231.263 295.909 228.179L305 218.891Z" fill="#2A85F5"/>
<path d="M193 108.891L155.742 71.7604C153.299 69.3311 150.001 67.9788 146.571 68.0003C143.141 68.0217 139.859 69.4152 137.446 71.875C134.428 74.9521 132.04 78.5995 130.419 82.6085C128.798 86.6175 127.976 90.9095 128.001 95.2392C128.025 99.5688 128.895 103.851 130.56 107.841C132.226 111.832 134.654 115.452 137.707 118.494C140.76 121.537 144.378 123.942 148.352 125.573C152.327 127.204 156.582 128.029 160.873 127.999C165.164 127.97 169.407 127.088 173.359 125.403C177.312 123.718 180.897 121.263 183.909 118.179L193 108.891Z" fill="#2A85F5"/>
<path d="M264 241.644L263.104 244C258.894 242.405 254.813 240.805 250.862 239.199C180.869 210.677 147.456 177.295 125.105 113.93L125.091 113.915C124.031 110.933 123 107.881 122 104.76L124.359 104C125.148 107.002 126.301 109.896 127.793 112.618C129.017 116.092 130.276 119.476 131.57 122.771C152.577 176.251 183.557 206.816 242.949 232.624C245.935 233.921 248.995 235.209 252.131 236.486C255.771 238.854 259.783 240.598 264 241.644Z" fill="#3F3D56"/>
<path d="M156.609 133.165L154.511 135.29L232.029 211.853L234.128 209.728L156.609 133.165Z" fill="#3F3D56"/>
</svg>
