<svg width="720" height="402" viewBox="0 0 720 402" fill="none" xmlns="http://www.w3.org/2000/svg">
<rect width="720" height="402" fill="#FCFCFD"/>
<path d="M383.439 322.879C383.439 336.091 372.724 346.803 359.506 346.803C346.289 346.803 335.574 336.091 335.574 322.879C335.574 309.666 346.289 298.955 359.506 298.955C372.724 298.955 383.439 309.666 383.439 322.879Z" stroke="#3F3D56" stroke-width="3"/>
<path d="M190.603 71.6773C197.931 71.6773 203.872 65.7384 203.872 58.4125C203.872 51.0866 197.931 45.1478 190.603 45.1478C183.275 45.1478 177.334 51.0866 177.334 58.4125C177.334 65.7384 183.275 71.6773 190.603 71.6773Z" fill="#E6E8F0"/>
<path d="M282.657 96.825C289.985 96.825 295.926 90.8862 295.926 83.5603C295.926 76.2344 289.985 70.2955 282.657 70.2955C275.328 70.2955 269.388 76.2344 269.388 83.5603C269.388 90.8862 275.328 96.825 282.657 96.825Z" fill="#E6E8F0"/>
<path d="M360.612 46.5295C367.941 46.5295 373.881 40.5907 373.881 33.2648C373.881 25.9388 367.941 20 360.612 20C353.284 20 347.343 25.9388 347.343 33.2648C347.343 40.5907 353.284 46.5295 360.612 46.5295Z" fill="#E6E8F0"/>
<path d="M409.265 102.905C416.593 102.905 422.534 96.9659 422.534 89.64C422.534 82.314 416.593 76.3752 409.265 76.3752C401.937 76.3752 395.996 82.314 395.996 89.64C395.996 96.9659 401.937 102.905 409.265 102.905Z" fill="#E6E8F0"/>
<path d="M343.473 168.123C350.801 168.123 356.742 162.184 356.742 154.858C356.742 147.532 350.801 141.594 343.473 141.594C336.145 141.594 330.204 147.532 330.204 154.858C330.204 162.184 336.145 168.123 343.473 168.123Z" fill="#E6E8F0"/>
<path d="M259.989 199.627C267.317 199.627 273.258 193.688 273.258 186.362C273.258 179.036 267.317 173.097 259.989 173.097C252.66 173.097 246.72 179.036 246.72 186.362C246.72 193.688 252.66 199.627 259.989 199.627Z" fill="#E6E8F0"/>
<path d="M348.449 248.817C355.777 248.817 361.718 242.878 361.718 235.552C361.718 228.226 355.777 222.288 348.449 222.288C341.12 222.288 335.18 228.226 335.18 235.552C335.18 242.878 341.12 248.817 348.449 248.817Z" fill="#E6E8F0"/>
<path d="M443.543 276.452C450.872 276.452 456.812 270.513 456.812 263.187C456.812 255.861 450.872 249.922 443.543 249.922C436.215 249.922 430.274 255.861 430.274 263.187C430.274 270.513 436.215 276.452 443.543 276.452Z" fill="#E6E8F0"/>
<path d="M554.671 270.372C562 270.372 567.94 264.433 567.94 257.108C567.94 249.782 562 243.843 554.671 243.843C547.343 243.843 541.402 249.782 541.402 257.108C541.402 264.433 547.343 270.372 554.671 270.372Z" fill="#E6E8F0"/>
<path d="M356.782 61.5854C317.035 61.8661 284.49 94.1558 283.926 133.887C283.921 134.254 283.918 136.834 283.918 140.207C283.919 145.153 285.884 149.897 289.383 153.395C292.882 156.893 297.627 158.858 302.575 158.858H302.575C305.027 158.858 307.456 158.374 309.722 157.435C311.987 156.496 314.046 155.12 315.779 153.385C317.513 151.65 318.887 149.591 319.824 147.325C320.761 145.059 321.242 142.63 321.24 140.178C321.238 137.884 321.237 136.295 321.237 136.198C321.236 130.057 322.834 124.022 325.873 118.686C328.913 113.35 333.29 108.897 338.573 105.765C343.856 102.633 349.864 100.93 356.005 100.823C362.147 100.716 368.21 102.209 373.6 105.155C378.989 108.102 383.518 112.4 386.741 117.627C389.965 122.854 391.772 128.829 391.985 134.966C392.197 141.103 390.808 147.189 387.954 152.627C385.1 158.064 380.879 162.665 375.707 165.977L375.713 165.985C375.713 165.985 349.16 183.074 341.064 206.517L341.071 206.519C339.647 211.321 338.926 216.304 338.929 221.313C338.929 223.372 339.051 241.388 339.285 256.01C339.366 261.056 341.429 265.867 345.028 269.405C348.626 272.944 353.472 274.926 358.519 274.925H358.519C361.056 274.925 363.567 274.423 365.908 273.45C368.25 272.476 370.376 271.048 372.164 269.25C373.952 267.452 375.366 265.317 376.326 262.971C377.286 260.624 377.772 258.11 377.756 255.575C377.675 242.183 377.631 226.59 377.631 225.459C377.631 211.064 391.522 196.721 402.932 187.368C416.072 176.598 425.527 161.92 429.325 145.363C430.165 141.955 430.629 138.464 430.707 134.954C430.707 125.274 428.791 115.69 425.069 106.754C421.347 97.8178 415.894 89.7061 409.022 82.8862C402.151 76.0664 393.997 70.6732 385.031 67.0174C376.066 63.3616 366.465 61.5155 356.782 61.5854Z" fill="#2A85F5"/>
<path d="M307.842 146.036C302.894 146.036 298.149 144.071 294.651 140.573C291.152 137.075 289.186 132.331 289.186 127.385C289.186 124.012 289.188 121.432 289.193 121.065C289.35 109.51 292.262 98.1593 297.685 87.9539C288.774 100.148 283.875 114.809 283.665 129.909C283.659 130.275 283.657 132.855 283.657 136.228C283.658 141.175 285.623 145.918 289.122 149.416C292.62 152.914 297.366 154.879 302.314 154.88C306.379 154.878 310.334 153.55 313.576 151.097C316.817 148.644 319.17 145.2 320.275 141.288C316.859 144.351 312.431 146.042 307.842 146.036Z" fill="#3F3D56"/>
<path d="M358.047 96.8855C363.767 97.1586 369.335 98.8154 374.274 101.714C379.212 104.612 383.373 108.665 386.4 113.526C389.426 118.386 391.227 123.907 391.649 129.617C392.07 135.326 391.099 141.052 388.819 146.304C392.117 142.432 394.541 137.895 395.926 133.002C397.311 128.108 397.624 122.974 396.844 117.949C396.064 112.924 394.209 108.126 391.406 103.882C388.603 99.6387 384.917 96.0492 380.601 93.3585C376.284 90.6679 371.438 88.9392 366.393 88.2906C361.348 87.6419 356.222 88.0884 351.365 89.5997C346.508 91.1109 342.034 93.6514 338.248 97.0479C334.462 100.444 331.453 104.617 329.426 109.281C332.929 105.162 337.331 101.902 342.293 99.7532C347.256 97.604 352.645 96.6229 358.047 96.8855Z" fill="#3F3D56"/>
<path d="M363.787 262.103C358.739 262.104 353.893 260.122 350.295 256.583C346.697 253.045 344.634 248.234 344.552 243.188C344.318 228.566 344.197 210.55 344.197 208.491C344.193 203.482 344.915 198.499 346.338 193.697L346.332 193.695C347.172 191.284 348.187 188.938 349.369 186.675C345.741 191.508 342.854 196.855 340.803 202.538L340.81 202.54C339.386 207.342 338.665 212.326 338.668 217.334C338.668 219.393 338.789 237.409 339.023 252.032C339.105 257.077 341.168 261.888 344.766 265.426C348.365 268.965 353.21 270.947 358.258 270.946C362.42 270.945 366.469 269.596 369.799 267.1C373.128 264.604 375.558 261.096 376.725 257.102C373.188 260.326 368.573 262.11 363.787 262.103Z" fill="#3F3D56"/>
<path d="M353.903 342.101C350.29 340.528 347.093 338.138 344.563 335.118C342.032 332.098 340.239 328.531 339.324 324.699C338.408 320.868 338.397 316.876 339.289 313.039C340.181 309.202 341.953 305.625 344.465 302.59C341.553 304.716 339.126 307.437 337.346 310.572C335.565 313.707 334.472 317.185 334.139 320.775C333.806 324.365 334.241 327.984 335.414 331.393C336.588 334.802 338.473 337.923 340.945 340.548C343.417 343.173 346.419 345.242 349.752 346.619C353.085 347.995 356.673 348.647 360.278 348.531C363.882 348.416 367.421 347.535 370.659 345.947C373.897 344.36 376.76 342.102 379.058 339.324C375.473 341.944 371.265 343.578 366.851 344.066C362.438 344.553 357.973 343.876 353.903 342.101Z" fill="#3F3D56"/>
</svg>
