<svg width="504" height="407" viewBox="0 0 504 407" fill="none" xmlns="http://www.w3.org/2000/svg">
<path opacity="0.1" d="M503.706 245.171C503.791 299.404 485.788 352.121 452.539 395H63.8745C30.6251 352.121 12.622 299.404 12.7068 245.171C12.7068 109.762 122.625 0 258.212 0C393.799 0 503.706 109.766 503.706 245.171Z" fill="#98A0B5"/>
<g clip-path="url(#clip0_1455_49506)">
<path d="M273.263 406.856C313.96 406.856 346.951 404.306 346.951 401.161C346.951 398.016 313.96 395.466 273.263 395.466C232.567 395.466 199.576 398.016 199.576 401.161C199.576 404.306 232.567 406.856 273.263 406.856Z" fill="#2A85F5"/>
<path d="M485.557 313.648C473.366 307.139 460.778 301.405 447.868 296.48C460.812 301.324 473.405 307.061 485.557 313.648Z" fill="#3F3D56"/>
<path d="M412.213 390.691C413.698 396.184 418.782 399.587 418.782 399.587C418.782 399.587 421.46 394.082 419.975 388.589C418.491 383.096 413.407 379.693 413.407 379.693C413.407 379.693 410.729 385.198 412.213 390.691Z" fill="#3F3D56"/>
<path d="M414.395 389.51C418.468 393.48 418.965 399.582 418.965 399.582C418.965 399.582 412.859 399.248 408.786 395.279C404.713 391.309 404.215 385.207 404.215 385.207C404.215 385.207 410.322 385.541 414.395 389.51Z" fill="#2A85F5"/>
<path d="M3.23752 314.311V322.785L2.81689 323.241V314.223C2.9571 314.25 3.09734 314.285 3.23752 314.311Z" fill="#3F3D56"/>
<path d="M30.2092 398.397C30.0865 398.599 29.9551 398.801 29.8237 399.003H2.81689V314.732L3.23752 314.311L6.82147 318.39V312.425H18.213V331.356L29.7185 344.436L29.8237 344.559C29.9639 344.998 30.0953 345.437 30.2267 345.875C30.2277 345.882 30.2307 345.888 30.2355 345.893C31.961 351.421 33.377 357.041 34.4767 362.728C36.9828 376.141 36.606 388.44 30.2092 398.397Z" fill="#CCCCCC"/>
<path d="M12.3 360.892H5.04932V366.941H12.3V360.892Z" fill="#3F3D56"/>
<path d="M12.3 371.78H5.04932V377.829H12.3V371.78Z" fill="#3F3D56"/>
<path d="M235.65 349.398L232.025 343.35L265.861 314.314C290.876 302.259 321.03 305.737 352.87 314.314V322.782L321.45 356.658L285.196 363.916L235.65 349.398Z" fill="#3F3D56"/>
<path d="M367.847 331.353C373.856 324.662 374.691 318.299 367.847 312.424H356.456V318.393L352.87 314.313L323.867 343.349L319.033 348.188L312.991 372.385L323.867 399.001H379.455V344.559L367.847 331.353Z" fill="#CCCCCC"/>
<path d="M232.025 343.35H323.867V399.002H232.025C220.914 386.967 226.686 365.031 232.025 343.35Z" fill="#F2F2F2"/>
<path d="M311.178 360.892H291.843V377.829H311.178V360.892Z" fill="#3F3D56"/>
<path d="M283.988 360.287H267.07V399.001H283.988V360.287Z" fill="#CCCCCC"/>
<path d="M247.735 366.336V360.288H240.484V366.336H247.13H247.735Z" fill="#3F3D56"/>
<path d="M247.13 371.175H240.484V377.225H247.735V371.175H247.13Z" fill="#3F3D56"/>
<path d="M259.819 360.287H252.568V366.336H259.819V360.287Z" fill="#3F3D56"/>
<path d="M259.819 371.175H252.568V377.224H259.819V371.175Z" fill="#3F3D56"/>
<path d="M349.849 366.941V360.892H342.598V366.941H349.244H349.849Z" fill="#3F3D56"/>
<path d="M349.244 371.781H342.598V377.83H349.849V371.781H349.244Z" fill="#3F3D56"/>
<path d="M361.933 360.892H354.682V366.941H361.933V360.892Z" fill="#3F3D56"/>
<path d="M361.933 371.78H354.682V377.829H361.933V371.78Z" fill="#3F3D56"/>
<path d="M72.1181 247.774L66.0762 242.934L99.9126 212.688H185.712V239.304L130.124 276.81L72.1181 247.774Z" fill="#3F3D56"/>
<path d="M201.159 229.641V213.279H189.767V217.286L185.516 212.674L157.721 242.92L146.846 250.179L129.982 373.527L155.414 398.988H214.519C223.575 353.38 230.756 306.528 214.519 244.13L201.159 229.641Z" fill="#CCCCCC"/>
<path d="M66.0757 242.934H157.918V399.002H66.0757C56.0256 338.371 51.1173 282.144 66.0757 242.934Z" fill="#F2F2F2"/>
<path d="M118.643 360.892H101.725V399.001H118.643V360.892Z" fill="#CCCCCC"/>
<path d="M83.5979 371.781V365.732H76.3477V371.781H82.9942H83.5979Z" fill="#3F3D56"/>
<path d="M82.9942 376.62H76.3477V382.669H83.5979V376.62H82.9942Z" fill="#3F3D56"/>
<path d="M95.6828 365.731H88.4321V371.78H95.6828V365.731Z" fill="#3F3D56"/>
<path d="M132.541 376.62H125.894V382.669H133.144V376.62H132.541Z" fill="#3F3D56"/>
<path d="M145.229 365.731H137.979V371.78H145.229V365.731Z" fill="#3F3D56"/>
<path d="M145.229 376.62H137.979V382.669H145.229V376.62Z" fill="#3F3D56"/>
<path d="M183.899 250.798V244.749H176.649V250.798H183.295H183.899Z" fill="#3F3D56"/>
<path d="M183.295 255.638H176.649V261.686H183.899V255.638H183.295Z" fill="#3F3D56"/>
<path d="M195.984 244.749H188.733V250.798H195.984V244.749Z" fill="#3F3D56"/>
<path d="M195.984 255.637H188.733V261.686H195.984V255.637Z" fill="#3F3D56"/>
<path d="M183.899 284.674V278.624H176.649V284.674H183.295H183.899Z" fill="#3F3D56"/>
<path d="M183.295 289.513H176.649V295.561H183.899V289.513H183.295Z" fill="#3F3D56"/>
<path d="M195.984 278.624H188.733V284.673H195.984V278.624Z" fill="#3F3D56"/>
<path d="M195.984 289.512H188.733V295.561H195.984V289.512Z" fill="#3F3D56"/>
<path d="M183.899 318.549V312.499H176.649V318.549H183.295H183.899Z" fill="#3F3D56"/>
<path d="M183.295 323.388H176.649V329.436H183.899V323.388H183.295Z" fill="#3F3D56"/>
<path d="M195.984 312.499H188.733V318.548H195.984V312.499Z" fill="#3F3D56"/>
<path d="M195.984 323.387H188.733V329.436H195.984V323.387Z" fill="#3F3D56"/>
<path d="M183.899 352.424V346.374H176.649V352.424H183.295H183.899Z" fill="#3F3D56"/>
<path d="M183.295 357.263H176.649V363.311H183.899V357.263H183.295Z" fill="#3F3D56"/>
<path d="M195.984 346.374H188.733V352.423H195.984V346.374Z" fill="#3F3D56"/>
<path d="M195.984 357.262H188.733V363.311H195.984V357.262Z" fill="#3F3D56"/>
<path d="M76.3477 250.798H146.438V265.316C123.972 259.109 100.544 259.554 76.3477 265.316V250.798Z" fill="#3F3D56"/>
<path d="M76.3477 279.833C98.2235 286.286 121.587 286.286 146.438 279.833V294.351H76.3477V279.833Z" fill="#3F3D56"/>
<path d="M76.3477 308.869H146.438V323.387C122.551 315.751 99.1632 315.391 76.3477 323.387V308.869Z" fill="#3F3D56"/>
<path d="M76.3477 337.905C99.2062 346.725 122.591 346.358 146.438 337.905V352.423H76.3477V337.905Z" fill="#3F3D56"/>
<path d="M453.047 312.683H502.293V336.439L497.894 337.817L483.261 342.39L460.302 337.065L437.37 331.745L425.26 328.937L419.214 326.697C424.244 319.788 433.392 314.354 453.047 312.683Z" fill="#3F3D56"/>
<path d="M502.293 326.697V399.003H419.214C419.187 398.958 419.17 398.917 419.143 398.873V398.869C419.124 398.818 419.1 398.769 419.073 398.722C417.776 396.109 416.614 393.502 415.586 390.903C406.867 368.902 407.813 347.483 419.214 326.697H502.293Z" fill="#F2F2F2"/>
<path d="M471.782 360.892H454.863V399.001H471.782V360.892Z" fill="#CCCCCC"/>
<path d="M436.737 371.781V365.732H429.486V371.781H436.133H436.737Z" fill="#3F3D56"/>
<path d="M436.133 376.62H429.486V382.669H436.737V376.62H436.133Z" fill="#3F3D56"/>
<path d="M448.821 365.731H441.57V371.78H448.821V365.731Z" fill="#3F3D56"/>
<path d="M448.821 376.62H441.57V382.669H448.821V376.62Z" fill="#3F3D56"/>
<path d="M486.283 371.781V365.732H479.033V371.781H485.679H486.283Z" fill="#3F3D56"/>
<path d="M485.679 376.62H479.033V382.669H486.283V376.62H485.679Z" fill="#3F3D56"/>
<path d="M498.367 365.731H491.117V371.78H498.367V365.731Z" fill="#3F3D56"/>
<path d="M498.367 376.62H491.117V382.669H498.367V376.62Z" fill="#3F3D56"/>
<path d="M437.373 284.61H447.788C458.06 284.61 467.912 288.696 475.176 295.968C482.44 303.24 486.52 313.103 486.52 323.387H437.373V284.61Z" fill="#3F3D56"/>
<path d="M121.914 179.338H132.329C142.601 179.338 152.453 183.423 159.717 190.695C166.981 197.967 171.062 207.83 171.062 218.115H121.914V179.338Z" fill="#3F3D56"/>
<path d="M288.406 276.715H298.821C309.094 276.715 318.945 280.8 326.209 288.072C333.473 295.344 337.554 305.207 337.554 315.492H288.406V276.715Z" fill="#3F3D56"/>
<path d="M486.52 337.905H437.373V352.423H486.52V337.905Z" fill="#3F3D56"/>
<path d="M502.294 398.401H2.81738V400.156H502.294V398.401Z" fill="#3F3D56"/>
<path d="M48.8834 329.093H47.1309V398.397H48.8834V329.093Z" fill="#3F3D56"/>
<path d="M65.0577 337.925C65.1693 362.159 48.1387 381.883 48.1387 381.883C48.1387 381.883 26.3289 361.897 30.8157 338.083C35.3282 314.132 49.3919 294.226 47.7347 294.124C47.7347 294.124 64.9461 313.691 65.0577 337.925Z" fill="#2A85F5"/>
<path d="M224.138 329.093H222.386V398.397H224.138V329.093Z" fill="#3F3D56"/>
<path d="M240.312 337.925C241.892 362.107 223.393 381.883 223.393 381.883C223.393 381.883 206.182 362.317 206.07 338.083C205.959 313.849 222.989 294.124 222.989 294.124C221.329 300.767 239.034 318.358 240.312 337.925Z" fill="#2A85F5"/>
<path d="M110.277 216.437L186.403 212.708L218.337 239.394L212.691 244.497L162.122 243.358L110.277 216.437Z" fill="#3F3D56"/>
<path d="M34.3192 340.278L30.2182 343.989L29.7188 344.436L28.676 345.384L2.81713 344.805V314.223C1.97591 314.039 1.13468 313.863 0.293457 313.697L2.38776 313.591L2.81713 313.951L6.82171 317.293L18.2133 326.821L30.9368 337.453L34.3192 340.278Z" fill="#3F3D56"/>
<path d="M276.77 317.323L352.895 313.595L384.829 340.28L379.183 345.384L328.614 344.244L276.77 317.323Z" fill="#3F3D56"/>
<path d="M207.707 130.856C207.929 126.71 209.771 122.806 212.854 119.949C215.937 117.091 220.026 115.498 224.276 115.498C224.78 115.498 225.278 115.524 225.771 115.567C227.709 112.31 230.489 109.607 233.831 107.727C237.174 105.848 240.963 104.858 244.82 104.856C248.677 104.854 252.467 105.841 255.811 107.717C259.156 109.593 261.938 112.294 263.879 115.549C264.295 115.518 264.713 115.498 265.137 115.498C269.387 115.498 273.476 117.091 276.559 119.949C279.642 122.806 281.484 126.71 281.707 130.856" fill="#CACEDB"/>
<path d="M212.707 130.856C212.929 126.71 214.771 122.806 217.854 119.949C220.937 117.091 225.026 115.498 229.276 115.498C229.78 115.498 230.278 115.524 230.771 115.567C232.709 112.31 235.489 109.607 238.831 107.727C242.174 105.848 245.963 104.858 249.82 104.856C253.677 104.854 257.467 105.841 260.811 107.717C264.156 109.593 266.938 112.294 268.879 115.549C269.295 115.518 269.713 115.498 270.137 115.498C274.387 115.498 278.476 117.091 281.559 119.949C284.642 122.806 286.484 126.71 286.707 130.856" stroke="#3F3D56" stroke-miterlimit="10"/>
<path d="M267.707 146.856C267.929 142.71 269.771 138.806 272.854 135.949C275.937 133.091 280.026 131.498 284.276 131.498C284.78 131.498 285.278 131.524 285.771 131.567C287.709 128.31 290.489 125.607 293.831 123.727C297.174 121.848 300.963 120.858 304.82 120.856C308.677 120.854 312.467 121.841 315.811 123.717C319.156 125.593 321.938 128.294 323.879 131.549C324.295 131.518 324.713 131.498 325.137 131.498C329.387 131.498 333.476 133.091 336.559 135.949C339.642 138.806 341.484 142.71 341.707 146.856" fill="#CACEDB"/>
<path d="M272.707 146.856C272.929 142.71 274.771 138.806 277.854 135.949C280.937 133.091 285.026 131.498 289.276 131.498C289.78 131.498 290.278 131.524 290.771 131.567C292.709 128.31 295.489 125.607 298.831 123.727C302.174 121.848 305.963 120.858 309.82 120.856C313.677 120.854 317.467 121.841 320.811 123.717C324.156 125.593 326.938 128.294 328.879 131.549C329.295 131.518 329.713 131.498 330.137 131.498C334.387 131.498 338.476 133.091 341.559 135.949C344.642 138.806 346.484 142.71 346.707 146.856" stroke="#3F3D56" stroke-miterlimit="10"/>
<path d="M320.43 207.092C323.778 205.159 324.894 200.824 322.923 197.409C320.951 193.994 316.638 192.793 313.29 194.726C309.941 196.659 308.825 200.995 310.797 204.41C312.768 207.824 317.081 209.026 320.43 207.092Z" fill="#E7E7E7"/>
<path d="M320.513 207.237C319.286 207.946 317.872 208.268 316.45 208.162C315.028 208.056 313.662 207.527 312.525 206.642C311.387 205.757 310.53 204.556 310.06 203.19C309.591 201.824 309.531 200.356 309.887 198.97C310.244 197.583 311.001 196.342 312.064 195.403C313.127 194.464 314.447 193.869 315.857 193.693C317.267 193.517 318.705 193.769 319.988 194.416C321.27 195.063 322.341 196.076 323.063 197.328C324.03 199.006 324.304 200.992 323.826 202.85C323.348 204.708 322.157 206.285 320.513 207.237ZM313.373 194.87C312.201 195.546 311.26 196.561 310.669 197.787C310.078 199.014 309.863 200.396 310.052 201.759C310.24 203.121 310.824 204.404 311.73 205.444C312.635 206.484 313.82 207.235 315.137 207.602C316.453 207.968 317.841 207.934 319.125 207.504C320.409 207.073 321.531 206.266 322.349 205.183C323.167 204.101 323.645 202.792 323.722 201.423C323.799 200.054 323.472 198.685 322.782 197.49C321.856 195.89 320.345 194.715 318.581 194.224C316.817 193.733 314.944 193.965 313.373 194.87Z" fill="#1151A6"/>
<path d="M301.43 188.092C304.778 186.159 305.894 181.824 303.923 178.409C301.951 174.994 297.638 173.793 294.29 175.726C290.941 177.659 289.825 181.995 291.797 185.41C293.768 188.824 298.081 190.026 301.43 188.092Z" fill="#E7E7E7"/>
<path d="M301.513 188.237C300.286 188.946 298.872 189.268 297.45 189.162C296.028 189.056 294.662 188.527 293.525 187.642C292.387 186.757 291.53 185.556 291.06 184.19C290.591 182.824 290.531 181.356 290.887 179.97C291.244 178.583 292.001 177.342 293.064 176.403C294.127 175.464 295.447 174.869 296.857 174.693C298.268 174.517 299.705 174.769 300.988 175.416C302.27 176.063 303.341 177.076 304.063 178.328C305.03 180.006 305.305 181.992 304.827 183.85C304.349 185.708 303.157 187.286 301.513 188.237ZM294.373 175.87C293.201 176.546 292.26 177.561 291.669 178.787C291.078 180.014 290.863 181.396 291.052 182.759C291.24 184.121 291.824 185.404 292.73 186.444C293.635 187.484 294.82 188.235 296.137 188.602C297.453 188.968 298.841 188.934 300.125 188.504C301.409 188.073 302.531 187.266 303.349 186.183C304.167 185.101 304.645 183.792 304.722 182.423C304.799 181.054 304.472 179.685 303.782 178.49C302.856 176.89 301.345 175.715 299.581 175.224C297.817 174.733 295.944 174.965 294.373 175.87Z" fill="#1151A6"/>
<path d="M301.43 232.093C304.778 230.16 305.895 225.825 303.923 222.41C301.952 218.995 297.639 217.794 294.29 219.727C290.942 221.66 289.826 225.996 291.797 229.411C293.769 232.825 298.082 234.027 301.43 232.093Z" fill="#E7E7E7"/>
<path d="M301.513 232.237C300.286 232.946 298.872 233.268 297.45 233.162C296.028 233.056 294.662 232.527 293.525 231.642C292.387 230.757 291.529 229.555 291.06 228.19C290.591 226.824 290.531 225.355 290.887 223.969C291.244 222.583 292.002 221.341 293.065 220.402C294.128 219.463 295.448 218.868 296.858 218.693C298.269 218.517 299.706 218.769 300.989 219.416C302.272 220.064 303.342 221.077 304.064 222.329C305.031 224.008 305.305 225.993 304.827 227.851C304.348 229.708 303.157 231.286 301.513 232.237ZM294.373 219.87C293.201 220.546 292.26 221.561 291.669 222.787C291.078 224.013 290.863 225.395 291.052 226.758C291.24 228.121 291.824 229.404 292.729 230.444C293.634 231.484 294.82 232.235 296.136 232.601C297.452 232.968 298.84 232.934 300.124 232.504C301.408 232.074 302.53 231.267 303.348 230.184C304.167 229.102 304.645 227.794 304.722 226.424C304.8 225.055 304.473 223.686 303.783 222.492C302.856 220.891 301.346 219.717 299.581 219.225C297.817 218.734 295.944 218.965 294.373 219.87Z" fill="#1151A6"/>
<path d="M312.431 164.094C315.779 162.161 316.895 157.825 314.924 154.41C312.952 150.996 308.639 149.794 305.291 151.728C301.942 153.661 300.826 157.996 302.798 161.411C304.769 164.826 309.082 166.027 312.431 164.094Z" fill="#E7E7E7"/>
<path d="M312.513 164.237C311.286 164.946 309.872 165.268 308.45 165.162C307.028 165.056 305.662 164.527 304.525 163.642C303.387 162.757 302.529 161.555 302.06 160.19C301.591 158.824 301.531 157.355 301.887 155.969C302.244 154.583 303.002 153.341 304.065 152.402C305.128 151.463 306.448 150.868 307.858 150.693C309.269 150.517 310.706 150.769 311.989 151.416C313.272 152.064 314.342 153.077 315.064 154.329C316.031 156.008 316.305 157.993 315.827 159.851C315.348 161.708 314.157 163.286 312.513 164.237ZM305.373 151.87C304.201 152.546 303.26 153.561 302.669 154.787C302.078 156.013 301.863 157.395 302.052 158.758C302.24 160.121 302.824 161.404 303.729 162.444C304.634 163.484 305.82 164.235 307.136 164.601C308.452 164.968 309.84 164.934 311.124 164.504C312.408 164.074 313.53 163.267 314.348 162.184C315.167 161.102 315.645 159.794 315.722 158.424C315.8 157.055 315.473 155.686 314.783 154.492C313.856 152.891 312.346 151.717 310.581 151.225C308.817 150.734 306.944 150.965 305.373 151.87Z" fill="#1151A6"/>
<path d="M298.403 228.227C298.388 227.924 298.314 227.626 298.183 227.351C298.053 227.075 297.869 226.829 297.643 226.625L298.607 226.069L298.135 225.251C297.756 225.47 297.38 225.669 297.021 225.894C296.954 225.948 296.869 225.975 296.783 225.971C296.697 225.967 296.615 225.932 296.551 225.873C295.881 225.407 295.585 224.71 295.781 223.965C295.978 223.221 296.658 222.694 297.514 223.026C297.81 223.16 298.099 223.313 298.378 223.483C298.465 223.53 298.547 223.592 298.635 223.65L299.404 222.588C299.12 222.42 298.867 222.246 298.597 222.099C298.1 221.796 297.53 221.642 296.955 221.652C295.847 221.709 295.084 222.293 294.663 223.295C294.447 223.767 294.368 224.294 294.436 224.815C294.504 225.336 294.717 225.829 295.049 226.237C295.189 226.42 295.358 226.581 295.528 226.768L294.783 227.198L295.254 228.014C295.614 227.806 295.965 227.603 296.317 227.4C296.358 227.377 296.429 227.351 296.457 227.371C296.693 227.531 296.944 227.69 297.035 227.994C297.134 228.332 297.153 228.688 297.089 229.032C297.025 229.375 296.88 229.698 296.667 229.971L296.615 230.051C296.942 230.325 297.263 230.591 297.586 230.861C297.634 230.803 297.674 230.761 297.706 230.715C297.848 230.511 297.979 230.296 298.131 230.101C298.504 229.626 298.953 229.274 299.581 229.212C299.737 229.197 299.894 229.175 300.052 229.156C300.992 229.05 301.523 228.431 301.941 227.649L300.844 226.848C300.788 226.951 300.747 227.038 300.699 227.123C300.478 227.482 300.217 227.809 299.783 227.895C299.349 227.981 298.847 227.999 298.403 228.227Z" fill="#1151A6"/>
<path d="M318.342 199.985C317.978 199.988 317.616 200.011 317.256 200.053C317.221 200.061 317.185 200.057 317.153 200.04C317.121 200.024 317.096 199.996 317.082 199.962C316.789 199.456 316.496 198.948 316.204 198.442C316.192 198.422 316.189 198.399 316.177 198.372C316.606 198.279 317.054 198.303 317.476 198.442L317.694 197.197C317.018 196.966 316.29 196.957 315.616 197.171C315.519 197.203 315.473 197.185 315.423 197.092C315.325 196.907 315.214 196.73 315.103 196.538L314.189 197.066L314.552 197.694C314.352 197.9 314.164 198.118 313.991 198.347C313.539 199.038 313.421 199.776 313.829 200.544C314.237 201.312 314.873 201.622 315.685 201.629C316.011 201.622 316.335 201.598 316.658 201.557C316.693 201.548 316.73 201.552 316.762 201.569C316.794 201.586 316.819 201.614 316.832 201.648C317.075 202.068 317.316 202.485 317.558 202.904L317.869 203.443C317.341 203.62 316.771 203.633 316.23 203.482L315.95 204.79C316.813 205.03 317.727 204.96 318.535 204.594L318.845 205.131L319.756 204.605L319.431 204.041L319.539 203.933C319.776 203.71 319.975 203.449 320.128 203.16C320.861 201.785 319.919 200.024 318.342 199.985ZM315.978 200.175C315.809 200.225 315.628 200.218 315.461 200.155C315.294 200.092 315.151 199.976 315.054 199.825C314.972 199.673 314.946 199.496 314.982 199.329C315.018 199.161 315.112 199.013 315.249 198.911L315.978 200.175ZM318.752 202.842C318.734 202.82 318.717 202.797 318.701 202.774L317.939 201.453C318.115 201.4 318.306 201.409 318.479 201.48C318.652 201.551 318.797 201.679 318.889 201.843C318.983 202.002 319.02 202.188 318.996 202.37C318.971 202.552 318.885 202.719 318.753 202.843L318.752 202.842Z" fill="#1151A6"/>
<path d="M298.874 178.863L299.083 177.551C298.636 177.398 298.163 177.344 297.697 177.395C296.622 177.515 295.815 178.084 295.233 178.974C294.652 179.864 294.588 180.861 294.82 181.89C294.897 182.228 294.899 182.227 294.602 182.398L293.778 182.874L294.257 183.703L295.285 183.11L295.533 183.54L294.506 184.133L294.989 184.969L296.102 184.327C297.247 185.522 298.556 186.054 300.132 185.461C300.702 185.27 301.206 184.923 301.59 184.458C301.974 183.994 302.222 183.43 302.308 182.828C301.899 182.682 301.495 182.532 301.083 182.376C300.955 182.909 300.775 183.401 300.355 183.753C300.159 183.93 299.928 184.064 299.678 184.147C299.427 184.23 299.161 184.261 298.896 184.237C298.349 184.182 297.909 183.907 297.5 183.514L300.116 182.003L299.635 181.171L296.907 182.747L296.659 182.316L299.386 180.742L298.906 179.912L296.304 181.414C296.135 180.672 296.191 179.986 296.679 179.412C297.257 178.731 298.014 178.6 298.874 178.863Z" fill="#1151A6"/>
<path d="M309.772 153.133C309.829 154.602 309.883 156.04 309.937 157.502L311.393 156.661L311.851 157.454L310.167 158.426L310.397 158.824L312.07 157.857L312.526 158.646L310.848 159.615L311.924 161.479L310.428 162.343L309.352 160.479L307.664 161.453L307.216 160.677L308.891 159.71L308.659 159.309L306.988 160.273L306.534 159.486L307.988 158.646L304.277 156.314L304.994 155.9C305.26 155.746 305.524 155.594 305.79 155.44C305.817 155.417 305.852 155.404 305.888 155.406C305.924 155.408 305.959 155.424 305.984 155.451C306.806 156.071 307.629 156.69 308.454 157.306C308.487 157.331 308.521 157.352 308.58 157.392C308.574 157.31 308.573 157.259 308.566 157.209C308.454 156.195 308.341 155.182 308.229 154.17C308.223 154.117 308.243 154.034 308.278 154.011C308.755 153.719 309.249 153.435 309.772 153.133Z" fill="#1151A6"/>
<path d="M319.965 206.288C318.924 206.891 317.723 207.165 316.515 207.076C315.308 206.987 314.147 206.539 313.181 205.788C312.214 205.037 311.485 204.017 311.085 202.858C310.685 201.698 310.633 200.451 310.935 199.273C311.237 198.096 311.88 197.041 312.781 196.243C313.683 195.445 314.804 194.938 316.002 194.788C317.199 194.638 318.42 194.85 319.51 195.399C320.6 195.948 321.509 196.807 322.124 197.87C322.946 199.295 323.181 200.981 322.776 202.559C322.371 204.137 321.36 205.478 319.965 206.288ZM313.925 195.826C312.938 196.395 312.144 197.25 311.645 198.282C311.147 199.315 310.965 200.479 311.124 201.627C311.282 202.775 311.774 203.856 312.536 204.732C313.298 205.609 314.297 206.241 315.406 206.55C316.514 206.859 317.684 206.831 318.765 206.468C319.846 206.105 320.791 205.425 321.481 204.513C322.17 203.601 322.572 202.499 322.637 201.345C322.701 200.191 322.425 199.038 321.843 198.032C321.064 196.684 319.792 195.694 318.307 195.278C316.822 194.863 315.244 195.057 313.92 195.818L313.925 195.826Z" fill="#1151A6"/>
<path d="M300.965 187.288C299.923 187.89 298.722 188.163 297.515 188.073C296.308 187.983 295.148 187.533 294.182 186.782C293.216 186.031 292.488 185.011 292.089 183.851C291.69 182.691 291.639 181.444 291.941 180.267C292.244 179.09 292.887 178.036 293.789 177.238C294.691 176.441 295.811 175.935 297.009 175.785C298.206 175.635 299.427 175.848 300.516 176.396C301.606 176.945 302.515 177.805 303.129 178.867C303.952 180.293 304.186 181.981 303.78 183.559C303.375 185.138 302.362 186.479 300.965 187.288ZM294.925 176.826C293.938 177.396 293.146 178.252 292.648 179.284C292.151 180.317 291.97 181.481 292.13 182.629C292.289 183.777 292.781 184.857 293.544 185.732C294.307 186.608 295.305 187.24 296.414 187.548C297.523 187.856 298.692 187.827 299.773 187.464C300.854 187.101 301.798 186.421 302.487 185.509C303.176 184.597 303.578 183.494 303.642 182.341C303.706 181.188 303.43 180.035 302.848 179.029C302.069 177.68 300.796 176.689 299.309 176.275C297.823 175.86 296.244 176.055 294.92 176.818L294.925 176.826Z" fill="#1151A6"/>
<path d="M300.966 231.289C299.924 231.892 298.724 232.166 297.516 232.077C296.308 231.988 295.148 231.54 294.181 230.789C293.214 230.039 292.485 229.019 292.086 227.859C291.686 226.7 291.634 225.452 291.936 224.275C292.238 223.097 292.88 222.043 293.782 221.244C294.684 220.446 295.804 219.94 297.002 219.789C298.2 219.639 299.421 219.852 300.51 220.4C301.6 220.949 302.51 221.809 303.124 222.871C303.947 224.296 304.181 225.983 303.776 227.561C303.372 229.139 302.361 230.48 300.966 231.289ZM294.926 220.828C293.938 221.396 293.145 222.251 292.646 223.284C292.147 224.316 291.966 225.48 292.124 226.628C292.283 227.777 292.774 228.857 293.536 229.734C294.299 230.61 295.297 231.243 296.406 231.552C297.515 231.861 298.684 231.832 299.765 231.469C300.847 231.107 301.792 230.426 302.481 229.514C303.17 228.603 303.573 227.5 303.637 226.346C303.701 225.193 303.425 224.04 302.843 223.034C302.064 221.685 300.793 220.695 299.308 220.28C297.822 219.865 296.245 220.059 294.921 220.819L294.926 220.828Z" fill="#1151A6"/>
<path d="M311.966 163.289C310.924 163.891 309.724 164.164 308.516 164.074C307.309 163.984 306.149 163.535 305.183 162.783C304.218 162.032 303.489 161.012 303.091 159.853C302.692 158.693 302.64 157.446 302.943 156.269C303.245 155.092 303.888 154.038 304.79 153.24C305.692 152.442 306.813 151.936 308.01 151.786C309.207 151.636 310.428 151.849 311.518 152.398C312.607 152.946 313.516 153.806 314.131 154.868C314.954 156.294 315.188 157.982 314.782 159.561C314.376 161.14 313.363 162.481 311.966 163.289ZM305.926 152.828C304.94 153.398 304.147 154.253 303.65 155.286C303.152 156.319 302.972 157.483 303.131 158.63C303.291 159.778 303.783 160.858 304.545 161.734C305.308 162.609 306.307 163.241 307.416 163.55C308.524 163.858 309.693 163.829 310.774 163.466C311.855 163.103 312.8 162.422 313.488 161.51C314.177 160.598 314.579 159.496 314.643 158.343C314.708 157.189 314.431 156.037 313.85 155.031C313.07 153.682 311.797 152.691 310.311 152.276C308.824 151.861 307.246 152.057 305.922 152.819L305.926 152.828Z" fill="#1151A6"/>
<path d="M254.43 190.092C257.778 188.159 258.894 183.824 256.923 180.409C254.951 176.994 250.638 175.793 247.29 177.726C243.941 179.659 242.825 183.995 244.797 187.41C246.768 190.824 251.081 192.026 254.43 190.092Z" fill="#E7E7E7"/>
<path d="M254.513 190.237C253.286 190.946 251.872 191.268 250.45 191.162C249.028 191.056 247.662 190.527 246.525 189.642C245.387 188.757 244.53 187.556 244.06 186.19C243.591 184.824 243.531 183.356 243.887 181.97C244.244 180.583 245.001 179.342 246.064 178.403C247.127 177.464 248.447 176.869 249.857 176.693C251.267 176.517 252.705 176.769 253.988 177.416C255.27 178.063 256.341 179.076 257.063 180.328C258.03 182.006 258.304 183.992 257.826 185.85C257.348 187.708 256.157 189.285 254.513 190.237ZM247.373 177.87C246.201 178.546 245.26 179.561 244.669 180.787C244.078 182.014 243.863 183.396 244.052 184.759C244.24 186.121 244.824 187.404 245.73 188.444C246.635 189.484 247.82 190.235 249.137 190.602C250.453 190.968 251.841 190.934 253.125 190.504C254.409 190.073 255.531 189.266 256.349 188.183C257.167 187.101 257.645 185.792 257.722 184.423C257.799 183.054 257.472 181.685 256.782 180.49C255.856 178.89 254.345 177.715 252.581 177.224C250.817 176.733 248.944 176.965 247.373 177.87Z" fill="#1151A6"/>
<path d="M235.43 171.092C238.778 169.159 239.894 164.824 237.923 161.409C235.951 157.994 231.638 156.793 228.29 158.726C224.941 160.659 223.825 164.995 225.797 168.41C227.768 171.824 232.081 173.026 235.43 171.092Z" fill="#E7E7E7"/>
<path d="M235.513 171.237C234.286 171.946 232.872 172.268 231.45 172.162C230.028 172.056 228.662 171.527 227.525 170.642C226.387 169.757 225.53 168.556 225.06 167.19C224.591 165.824 224.531 164.356 224.887 162.97C225.244 161.583 226.001 160.342 227.064 159.403C228.127 158.464 229.447 157.869 230.857 157.693C232.268 157.517 233.705 157.769 234.988 158.416C236.27 159.063 237.341 160.076 238.063 161.328C239.03 163.006 239.305 164.992 238.827 166.85C238.349 168.708 237.157 170.286 235.513 171.237ZM228.373 158.87C227.201 159.546 226.26 160.561 225.669 161.787C225.078 163.014 224.863 164.396 225.052 165.759C225.24 167.121 225.824 168.404 226.73 169.444C227.635 170.484 228.82 171.235 230.137 171.602C231.453 171.968 232.841 171.934 234.125 171.504C235.409 171.073 236.531 170.266 237.349 169.183C238.167 168.101 238.645 166.792 238.722 165.423C238.799 164.054 238.472 162.685 237.782 161.49C236.856 159.89 235.345 158.715 233.581 158.224C231.817 157.733 229.944 157.965 228.373 158.87Z" fill="#1151A6"/>
<path d="M235.43 215.093C238.778 213.16 239.895 208.825 237.923 205.41C235.952 201.995 231.639 200.794 228.29 202.727C224.942 204.66 223.826 208.996 225.797 212.411C227.769 215.825 232.082 217.027 235.43 215.093Z" fill="#E7E7E7"/>
<path d="M235.513 215.237C234.286 215.946 232.872 216.268 231.45 216.162C230.028 216.056 228.662 215.527 227.525 214.642C226.387 213.757 225.529 212.555 225.06 211.19C224.591 209.824 224.531 208.355 224.887 206.969C225.244 205.583 226.002 204.341 227.065 203.402C228.128 202.463 229.448 201.868 230.858 201.693C232.269 201.517 233.706 201.769 234.989 202.416C236.272 203.064 237.342 204.077 238.064 205.329C239.031 207.008 239.305 208.993 238.827 210.851C238.348 212.708 237.157 214.286 235.513 215.237ZM228.373 202.87C227.201 203.546 226.26 204.561 225.669 205.787C225.078 207.013 224.863 208.395 225.052 209.758C225.24 211.121 225.824 212.404 226.729 213.444C227.634 214.484 228.82 215.235 230.136 215.601C231.452 215.968 232.84 215.934 234.124 215.504C235.408 215.074 236.53 214.267 237.348 213.184C238.167 212.102 238.645 210.794 238.722 209.424C238.8 208.055 238.473 206.686 237.783 205.492C236.856 203.891 235.346 202.717 233.581 202.225C231.817 201.734 229.944 201.965 228.373 202.87Z" fill="#1151A6"/>
<path d="M246.431 147.094C249.779 145.161 250.895 140.825 248.924 137.41C246.952 133.996 242.639 132.794 239.291 134.728C235.942 136.661 234.826 140.996 236.798 144.411C238.769 147.826 243.082 149.027 246.431 147.094Z" fill="#E7E7E7"/>
<path d="M246.513 147.237C245.286 147.946 243.872 148.268 242.45 148.162C241.028 148.056 239.662 147.527 238.525 146.642C237.387 145.757 236.529 144.555 236.06 143.19C235.591 141.824 235.531 140.355 235.887 138.969C236.244 137.583 237.002 136.341 238.065 135.402C239.128 134.463 240.448 133.868 241.858 133.693C243.269 133.517 244.706 133.769 245.989 134.416C247.272 135.064 248.342 136.077 249.064 137.329C250.031 139.008 250.305 140.993 249.827 142.851C249.348 144.708 248.157 146.286 246.513 147.237ZM239.373 134.87C238.201 135.546 237.26 136.561 236.669 137.787C236.078 139.013 235.863 140.395 236.052 141.758C236.24 143.121 236.824 144.404 237.729 145.444C238.634 146.484 239.82 147.235 241.136 147.601C242.452 147.968 243.84 147.934 245.124 147.504C246.408 147.074 247.53 146.267 248.348 145.184C249.167 144.102 249.645 142.794 249.722 141.424C249.8 140.055 249.473 138.686 248.783 137.492C247.856 135.891 246.346 134.717 244.581 134.225C242.817 133.734 240.944 133.965 239.373 134.87Z" fill="#1151A6"/>
<path d="M232.403 211.227C232.388 210.924 232.314 210.626 232.183 210.351C232.053 210.076 231.869 209.829 231.643 209.625L232.607 209.069L232.135 208.252C231.756 208.47 231.38 208.67 231.021 208.895C230.954 208.948 230.869 208.975 230.783 208.971C230.697 208.967 230.615 208.933 230.551 208.873C229.881 208.407 229.585 207.71 229.781 206.966C229.978 206.221 230.658 205.694 231.514 206.026C231.81 206.161 232.099 206.314 232.378 206.484C232.465 206.531 232.547 206.592 232.635 206.651L233.404 205.589C233.12 205.421 232.867 205.247 232.597 205.099C232.1 204.797 231.53 204.642 230.955 204.653C229.847 204.709 229.084 205.293 228.663 206.295C228.447 206.768 228.368 207.295 228.436 207.816C228.504 208.336 228.717 208.829 229.049 209.237C229.189 209.421 229.358 209.581 229.528 209.768L228.783 210.198L229.254 211.014C229.614 210.807 229.965 210.604 230.317 210.401C230.358 210.377 230.429 210.351 230.457 210.371C230.693 210.532 230.944 210.691 231.035 210.994C231.134 211.332 231.153 211.688 231.089 212.032C231.025 212.376 230.88 212.698 230.667 212.972L230.615 213.051C230.942 213.325 231.263 213.591 231.586 213.862C231.634 213.803 231.674 213.761 231.706 213.716C231.848 213.511 231.979 213.296 232.131 213.101C232.504 212.626 232.953 212.275 233.581 212.213C233.737 212.197 233.894 212.176 234.052 212.157C234.992 212.05 235.523 211.432 235.941 210.649L234.844 209.849C234.788 209.951 234.747 210.038 234.699 210.124C234.478 210.482 234.217 210.809 233.783 210.895C233.349 210.981 232.847 210.999 232.403 211.227Z" fill="#1151A6"/>
<path d="M252.342 182.985C251.978 182.988 251.616 183.011 251.256 183.053C251.221 183.061 251.185 183.057 251.153 183.04C251.121 183.024 251.096 182.996 251.082 182.962C250.789 182.456 250.496 181.948 250.204 181.442C250.192 181.422 250.189 181.399 250.177 181.372C250.606 181.279 251.054 181.303 251.476 181.442L251.694 180.197C251.018 179.966 250.29 179.957 249.616 180.171C249.519 180.203 249.473 180.185 249.423 180.092C249.325 179.907 249.214 179.73 249.103 179.538L248.189 180.066L248.552 180.694C248.352 180.9 248.164 181.118 247.991 181.347C247.539 182.038 247.421 182.776 247.829 183.544C248.237 184.312 248.873 184.622 249.685 184.629C250.011 184.622 250.335 184.598 250.658 184.557C250.693 184.548 250.73 184.552 250.762 184.569C250.794 184.586 250.819 184.614 250.832 184.648C251.075 185.068 251.316 185.485 251.558 185.904L251.869 186.443C251.341 186.62 250.771 186.633 250.23 186.482L249.95 187.79C250.813 188.03 251.727 187.96 252.535 187.594L252.845 188.131L253.756 187.605L253.431 187.041L253.539 186.933C253.776 186.71 253.975 186.449 254.128 186.16C254.861 184.785 253.919 183.024 252.342 182.985ZM249.978 183.175C249.809 183.225 249.628 183.218 249.461 183.155C249.294 183.092 249.151 182.976 249.054 182.825C248.972 182.673 248.946 182.496 248.982 182.329C249.018 182.161 249.112 182.013 249.249 181.911L249.978 183.175ZM252.752 185.842C252.734 185.82 252.717 185.797 252.701 185.774L251.939 184.453C252.115 184.4 252.306 184.409 252.479 184.48C252.652 184.551 252.797 184.679 252.889 184.843C252.983 185.002 253.02 185.188 252.996 185.37C252.971 185.552 252.885 185.719 252.753 185.843L252.752 185.842Z" fill="#1151A6"/>
<path d="M232.874 161.863L233.083 160.551C232.636 160.398 232.163 160.344 231.697 160.395C230.622 160.515 229.815 161.084 229.233 161.974C228.652 162.864 228.588 163.861 228.82 164.89C228.897 165.228 228.899 165.227 228.602 165.398L227.778 165.874L228.257 166.703L229.285 166.11L229.533 166.54L228.506 167.133L228.989 167.969L230.102 167.327C231.247 168.522 232.556 169.054 234.132 168.461C234.702 168.27 235.206 167.923 235.59 167.458C235.974 166.994 236.222 166.43 236.308 165.828C235.899 165.682 235.495 165.532 235.083 165.376C234.955 165.909 234.775 166.401 234.355 166.753C234.159 166.93 233.928 167.064 233.678 167.147C233.427 167.23 233.161 167.261 232.896 167.237C232.349 167.182 231.909 166.907 231.5 166.514L234.116 165.003L233.635 164.171L230.907 165.747L230.659 165.316L233.386 163.742L232.906 162.912L230.304 164.414C230.135 163.672 230.191 162.986 230.679 162.412C231.257 161.731 232.014 161.6 232.874 161.863Z" fill="#1151A6"/>
<path d="M243.772 136.133C243.829 137.602 243.883 139.04 243.937 140.502L245.393 139.661L245.851 140.454L244.167 141.426L244.397 141.824L246.07 140.857L246.526 141.646L244.848 142.615L245.924 144.479L244.428 145.343L243.352 143.479L241.664 144.453L241.216 143.677L242.891 142.71L242.659 142.309L240.988 143.273L240.534 142.486L241.988 141.646L238.277 139.314L238.994 138.9C239.26 138.746 239.524 138.594 239.79 138.44C239.817 138.417 239.852 138.404 239.888 138.406C239.924 138.408 239.959 138.424 239.984 138.451C240.806 139.071 241.629 139.69 242.454 140.306C242.487 140.331 242.521 140.352 242.58 140.392C242.574 140.31 242.573 140.259 242.566 140.209C242.454 139.195 242.341 138.182 242.229 137.17C242.223 137.117 242.243 137.034 242.278 137.011C242.755 136.719 243.249 136.435 243.772 136.133Z" fill="#1151A6"/>
<path d="M253.965 189.288C252.924 189.891 251.723 190.165 250.515 190.076C249.308 189.987 248.147 189.539 247.181 188.788C246.214 188.038 245.485 187.018 245.085 185.858C244.685 184.699 244.633 183.451 244.935 182.274C245.237 181.097 245.88 180.042 246.781 179.243C247.683 178.445 248.804 177.939 250.002 177.788C251.199 177.638 252.42 177.851 253.51 178.399C254.6 178.948 255.509 179.808 256.124 180.87C256.946 182.295 257.181 183.982 256.776 185.56C256.371 187.138 255.36 188.479 253.965 189.288ZM247.925 178.827C246.938 179.395 246.144 180.25 245.645 181.283C245.147 182.315 244.965 183.479 245.124 184.627C245.282 185.776 245.774 186.856 246.536 187.733C247.298 188.609 248.297 189.242 249.406 189.551C250.514 189.86 251.684 189.831 252.765 189.468C253.846 189.106 254.791 188.425 255.481 187.513C256.17 186.602 256.572 185.499 256.637 184.345C256.701 183.192 256.425 182.039 255.843 181.033C255.064 179.685 253.792 178.694 252.307 178.279C250.822 177.864 249.244 178.058 247.92 178.818L247.925 178.827Z" fill="#1151A6"/>
<path d="M234.965 170.288C233.923 170.89 232.722 171.163 231.515 171.073C230.308 170.983 229.148 170.533 228.182 169.782C227.216 169.031 226.488 168.011 226.089 166.851C225.69 165.691 225.639 164.444 225.941 163.267C226.244 162.09 226.887 161.036 227.789 160.238C228.691 159.441 229.811 158.935 231.009 158.785C232.206 158.635 233.427 158.848 234.516 159.396C235.606 159.945 236.515 160.805 237.129 161.867C237.952 163.293 238.186 164.981 237.78 166.559C237.375 168.138 236.362 169.479 234.965 170.288ZM228.925 159.826C227.938 160.396 227.146 161.252 226.648 162.284C226.151 163.317 225.97 164.481 226.13 165.629C226.289 166.777 226.781 167.857 227.544 168.732C228.307 169.608 229.305 170.24 230.414 170.548C231.523 170.856 232.692 170.827 233.773 170.464C234.854 170.101 235.798 169.421 236.487 168.509C237.176 167.597 237.578 166.494 237.642 165.341C237.706 164.188 237.43 163.035 236.848 162.029C236.069 160.68 234.796 159.689 233.309 159.275C231.823 158.86 230.244 159.055 228.92 159.818L228.925 159.826Z" fill="#1151A6"/>
<path d="M234.966 214.289C233.924 214.892 232.724 215.166 231.516 215.077C230.308 214.988 229.148 214.54 228.181 213.789C227.214 213.039 226.485 212.019 226.086 210.859C225.686 209.7 225.634 208.452 225.936 207.275C226.238 206.097 226.88 205.043 227.782 204.244C228.684 203.446 229.804 202.94 231.002 202.789C232.2 202.639 233.421 202.852 234.51 203.4C235.6 203.949 236.51 204.809 237.124 205.871C237.947 207.296 238.181 208.983 237.776 210.561C237.372 212.139 236.361 213.48 234.966 214.289ZM228.926 203.828C227.938 204.396 227.145 205.251 226.646 206.284C226.147 207.316 225.966 208.48 226.124 209.628C226.283 210.777 226.774 211.857 227.536 212.734C228.299 213.61 229.297 214.243 230.406 214.552C231.515 214.861 232.684 214.832 233.765 214.469C234.847 214.107 235.792 213.426 236.481 212.514C237.17 211.603 237.573 210.5 237.637 209.346C237.701 208.193 237.425 207.04 236.843 206.034C236.064 204.685 234.793 203.695 233.308 203.28C231.822 202.865 230.245 203.059 228.921 203.819L228.926 203.828Z" fill="#1151A6"/>
<path d="M245.966 146.29C244.924 146.892 243.724 147.165 242.516 147.075C241.309 146.984 240.149 146.535 239.183 145.784C238.218 145.033 237.489 144.013 237.091 142.853C236.692 141.693 236.64 140.446 236.943 139.269C237.245 138.092 237.888 137.038 238.79 136.24C239.692 135.443 240.813 134.937 242.01 134.787C243.207 134.637 244.428 134.85 245.518 135.398C246.607 135.947 247.516 136.807 248.131 137.869C248.954 139.295 249.188 140.982 248.782 142.561C248.376 144.14 247.363 145.481 245.966 146.29ZM239.926 135.828C238.94 136.398 238.147 137.254 237.65 138.286C237.152 139.319 236.972 140.483 237.131 141.631C237.291 142.779 237.783 143.859 238.545 144.734C239.308 145.61 240.307 146.242 241.416 146.55C242.524 146.858 243.693 146.829 244.774 146.466C245.855 146.103 246.8 145.423 247.488 144.511C248.177 143.599 248.579 142.496 248.643 141.343C248.708 140.19 248.431 139.037 247.85 138.031C247.07 136.682 245.797 135.691 244.311 135.277C242.824 134.862 241.246 135.057 239.922 135.82L239.926 135.828Z" fill="#1151A6"/>
</g>
<defs>
<clipPath id="clip0_1455_49506">
<rect width="502" height="317" fill="white" transform="translate(0.293457 89.856)"/>
</clipPath>
</defs>
</svg>
