<svg width="505" height="396" viewBox="0 0 505 396" fill="none" xmlns="http://www.w3.org/2000/svg">
<path opacity="0.1" d="M505 246.027C505.087 300.26 486.643 352.977 452.582 395.856H54.4184C20.3565 352.977 1.91338 300.26 2.00031 246.027C2.00031 110.618 114.605 0.855957 253.506 0.855957C392.406 0.855957 505 110.622 505 246.027Z" fill="#98A0B5"/>
<path d="M151 121.784C151.15 119.074 152.395 116.521 154.478 114.652C156.561 112.784 159.324 111.742 162.196 111.742C162.536 111.742 162.873 111.759 163.206 111.787C164.515 109.658 166.393 107.89 168.652 106.662C170.91 105.433 173.47 104.785 176.077 104.784C178.683 104.783 181.243 105.428 183.503 106.655C185.763 107.882 187.643 109.648 188.954 111.776C189.235 111.756 189.518 111.742 189.804 111.742C192.676 111.742 195.439 112.784 197.522 114.652C199.605 116.521 200.85 119.074 201 121.784" fill="#CACEDB"/>
<path d="M154 121.784C154.15 119.074 155.395 116.521 157.478 114.652C159.561 112.784 162.324 111.742 165.196 111.742C165.536 111.742 165.873 111.759 166.206 111.787C167.515 109.658 169.393 107.89 171.652 106.662C173.91 105.433 176.47 104.785 179.077 104.784C181.683 104.783 184.243 105.428 186.503 106.655C188.763 107.882 190.643 109.648 191.954 111.776C192.235 111.756 192.518 111.742 192.804 111.742C195.676 111.742 198.439 112.784 200.522 114.652C202.605 116.521 203.85 119.074 204 121.784" stroke="#3F3D56" stroke-miterlimit="10"/>
<path d="M192 132.784C192.15 129.914 193.395 127.211 195.478 125.233C197.561 123.255 200.324 122.152 203.196 122.152C203.536 122.152 203.873 122.169 204.206 122.199C205.515 119.945 207.393 118.073 209.652 116.772C211.91 115.471 214.47 114.785 217.077 114.784C219.683 114.783 222.243 115.466 224.503 116.765C226.763 118.064 228.643 119.934 229.954 122.187C230.235 122.166 230.518 122.152 230.804 122.152C233.676 122.152 236.439 123.255 238.522 125.233C240.605 127.211 241.85 129.914 242 132.784" fill="#CACEDB"/>
<path d="M195 132.784C195.15 129.914 196.395 127.211 198.478 125.233C200.561 123.255 203.324 122.152 206.196 122.152C206.536 122.152 206.873 122.169 207.206 122.199C208.515 119.945 210.393 118.073 212.652 116.772C214.91 115.471 217.47 114.785 220.077 114.784C222.683 114.783 225.243 115.466 227.503 116.765C229.763 118.064 231.643 119.934 232.954 122.187C233.235 122.166 233.518 122.152 233.804 122.152C236.676 122.152 239.439 123.255 241.522 125.233C243.605 127.211 244.85 129.914 245 132.784" stroke="#3F3D56" stroke-miterlimit="10"/>
<path d="M385.91 220.64C385.91 217.878 388.148 215.64 390.91 215.64H405.91C408.671 215.64 410.91 217.878 410.91 220.64V296.64H385.91V220.64Z" fill="#D9D9D9"/>
<path d="M412.91 297.64H383.91V220.774C383.911 218.617 384.452 216.55 385.414 215.025C386.375 213.5 387.679 212.642 389.039 212.64H407.781C409.141 212.642 410.444 213.5 411.406 215.025C412.367 216.55 412.908 218.617 412.91 220.774V297.64ZM385.049 295.832H411.77V220.774C411.769 219.097 411.348 217.489 410.6 216.302C409.852 215.116 408.838 214.449 407.781 214.447H389.039C387.981 214.449 386.967 215.116 386.219 216.302C385.471 217.489 385.051 219.097 385.049 220.774V295.832Z" fill="#3F3D56"/>
<path d="M409.535 139.696C417.01 141.699 424.693 137.263 426.696 129.788C428.699 122.313 424.263 114.63 416.788 112.627C409.313 110.624 401.63 115.06 399.627 122.535C397.624 130.01 402.06 137.693 409.535 139.696Z" fill="#2A85F5"/>
<g opacity="0.29">
<path d="M410.81 134.935C415.656 136.233 420.637 133.358 421.935 128.512C423.234 123.666 420.358 118.686 415.512 117.387C410.667 116.089 405.686 118.964 404.387 123.81C403.089 128.656 405.965 133.637 410.81 134.935Z" fill="white"/>
</g>
<path d="M416.971 125.25L418.343 124.724C418.243 124.211 418.032 123.728 417.726 123.309C417.016 122.345 416.024 121.886 414.849 121.822C413.675 121.758 412.684 122.248 411.826 123.039C411.545 123.3 411.547 123.301 411.218 123.112L410.306 122.585L409.776 123.502L410.914 124.159L410.639 124.635L409.503 123.98L408.969 124.905L410.2 125.616C409.688 127.375 409.903 128.923 411.343 130.106C411.842 130.546 412.453 130.838 413.11 130.948C413.768 131.059 414.445 130.985 415.07 130.734C414.984 130.261 414.904 129.792 414.825 129.31C414.244 129.483 413.672 129.582 413.103 129.374C412.825 129.284 412.569 129.137 412.351 128.943C412.132 128.749 411.956 128.511 411.832 128.245C411.582 127.69 411.602 127.115 411.753 126.506L414.648 128.177L415.179 127.257L412.16 125.513L412.435 125.037L415.452 126.779L415.983 125.86L413.104 124.198C413.721 123.625 414.409 123.299 415.23 123.449C416.202 123.627 416.746 124.28 416.971 125.25Z" fill="white"/>
<path d="M390.07 200.547C398.483 202.802 407.13 197.809 409.384 189.396C411.638 180.983 406.646 172.336 398.233 170.082C389.82 167.827 381.173 172.82 378.918 181.233C376.664 189.646 381.657 198.293 390.07 200.547Z" fill="#2A85F5"/>
<g opacity="0.29">
<path d="M391.505 195.189C396.959 196.651 402.565 193.414 404.026 187.96C405.487 182.507 402.251 176.901 396.797 175.439C391.343 173.978 385.738 177.215 384.276 182.668C382.815 188.122 386.052 193.728 391.505 195.189Z" fill="white"/>
</g>
<path d="M389.974 187.976L391.278 186.794C391.71 187.451 392.352 187.943 393.099 188.187C393.914 188.406 394.362 188.164 394.537 187.51C394.933 186.032 391.135 185.043 391.829 182.451C392.276 180.785 393.714 180.033 395.534 180.521C396.053 180.652 396.537 180.895 396.953 181.231C397.368 181.568 397.706 181.992 397.942 182.472L396.561 183.399C396.421 183.127 396.227 182.885 395.992 182.689C395.756 182.492 395.484 182.345 395.191 182.255C394.5 182.07 394.05 182.248 393.878 182.893C393.51 184.263 397.334 185.159 396.598 187.905C396.156 189.554 394.743 190.454 392.643 189.892C391.561 189.575 390.619 188.9 389.974 187.976ZM395.113 178.9L396.515 179.275L395.96 181.344L394.559 180.968L395.113 178.9ZM392.431 188.911L393.832 189.286L393.224 191.556L391.823 191.18L392.431 188.911Z" fill="white"/>
<path d="M362.233 158.547C370.646 160.802 379.293 155.809 381.547 147.396C383.801 138.983 378.809 130.336 370.396 128.082C361.983 125.827 353.336 130.82 351.081 139.233C348.827 147.646 353.82 156.293 362.233 158.547Z" fill="#2A85F5"/>
<g opacity="0.29">
<path d="M363.668 153.189C369.122 154.651 374.728 151.414 376.189 145.96C377.651 140.507 374.414 134.901 368.96 133.439C363.507 131.978 357.901 135.215 356.439 140.668C354.978 146.122 358.215 151.728 363.668 153.189Z" fill="white"/>
</g>
<path d="M365.444 146.573C365.744 146.242 365.976 145.854 366.127 145.431C366.278 145.009 366.344 144.56 366.321 144.113L367.904 144.537L368.264 143.194C367.642 143.027 367.042 142.844 366.433 142.704C366.308 142.689 366.192 142.63 366.106 142.536C366.021 142.442 365.971 142.32 365.966 142.192C365.753 141.008 366.172 139.974 367.152 139.403C368.132 138.832 369.389 138.992 369.935 140.229C370.104 140.679 370.245 141.138 370.358 141.606C370.4 141.746 370.422 141.896 370.453 142.048L372.36 141.743C372.239 141.271 372.157 140.827 372.029 140.391C371.826 139.559 371.394 138.805 370.784 138.216C369.571 137.121 368.167 136.935 366.685 137.54C365.967 137.807 365.336 138.274 364.865 138.887C364.394 139.501 364.102 140.236 364.022 141.007C363.977 141.343 363.986 141.687 363.969 142.058L362.744 141.73L362.385 143.071C362.976 143.23 363.554 143.384 364.132 143.539C364.199 143.557 364.3 143.604 364.309 143.655C364.386 144.067 364.482 144.494 364.261 144.905C364.013 145.361 363.662 145.751 363.237 146.043C362.812 146.334 362.325 146.519 361.818 146.582L361.681 146.611C361.737 147.237 361.793 147.848 361.848 148.466C361.96 148.456 362.045 148.453 362.125 148.44C362.487 148.375 362.847 148.287 363.208 148.242C364.091 148.135 364.926 148.238 365.645 148.827C365.823 148.973 366.009 149.114 366.193 149.259C367.283 150.127 368.481 150.036 369.732 149.657L369.422 147.68C369.258 147.729 369.124 147.776 368.984 147.815C368.381 147.959 367.768 148.027 367.227 147.665C366.685 147.302 366.144 146.799 365.444 146.573Z" fill="white"/>
<path d="M380.856 93.6937C389.061 95.8922 397.495 91.023 399.694 82.818C401.892 74.613 397.023 66.1793 388.818 63.9808C380.613 61.7823 372.179 66.6515 369.981 74.8564C367.782 83.0614 372.651 91.4951 380.856 93.6937Z" fill="#2A85F5"/>
<g opacity="0.29">
<path d="M382.257 88.4681C387.575 89.8933 393.043 86.7368 394.468 81.418C395.893 76.0992 392.736 70.6321 387.418 69.207C382.099 67.7818 376.632 70.9382 375.207 76.257C373.781 81.5758 376.938 87.0429 382.257 88.4681Z" fill="white"/>
</g>
<path d="M392.325 76.2332C390.628 77.3023 388.965 78.3471 387.274 79.4095L389.261 80.5567L388.636 81.6393L386.338 80.3126L386.025 80.8549L388.309 82.1739L387.688 83.2507L385.398 81.9284L383.928 84.4736L381.885 83.2943L383.355 80.7491L381.051 79.4191L381.663 78.3599L383.949 79.68L384.266 79.1318L381.985 77.815L382.606 76.7402L384.591 77.8862L384.815 71.9073L385.794 72.4726C386.157 72.6821 386.518 72.8904 386.88 73.0999C386.927 73.1157 386.965 73.149 386.987 73.193C387.01 73.2369 387.014 73.2882 387 73.336C386.828 74.7314 386.658 76.1268 386.493 77.5225C386.486 77.5786 386.485 77.633 386.477 77.7304C386.57 77.6667 386.63 77.6305 386.685 77.589C387.806 76.7641 388.927 75.9398 390.047 75.1162C390.105 75.0739 390.217 75.0394 390.268 75.0662C390.939 75.4299 391.611 75.8209 392.325 76.2332Z" fill="white"/>
<path d="M113.64 293.846L105.91 281.876L178.063 224.419C231.406 200.565 295.705 207.305 363.602 224.276V241.176L296.602 308.211L219.293 322.575L113.64 293.846Z" fill="#3F3D56"/>
<rect x="304.074" y="284.195" width="112.006" height="111.222" fill="#E1E1E1"/>
<path d="M212.067 233.97L363.602 224.276L427.374 274.917L416.323 284.978L315.823 284.195L212.067 233.97Z" fill="#3F3D56"/>
<path d="M132.026 284H306V395H132.026C110.978 370.996 121.912 327.244 132.026 284Z" fill="#F2F2F2"/>
<path d="M280.89 319.05H241.703V352.941H280.89V319.05Z" fill="#3F3D56"/>
<path d="M226.876 317.99H192.984V395.305H226.876V317.99Z" fill="#CCCCCC"/>
<path d="M154.768 330.709V318H141V330.709H153.62H154.768Z" fill="#3F3D56"/>
<path d="M153.62 340.241H141V351.891H154.768V340.241H153.62Z" fill="#3F3D56"/>
<path d="M179.128 318H165.359V330.709H179.128V318Z" fill="#3F3D56"/>
<path d="M179.128 340.241H165.359V351.891H179.128V340.241Z" fill="#3F3D56"/>
<path d="M358.204 331.759V319.05H343.376V331.759H356.967H358.204Z" fill="#3F3D56"/>
<path d="M356.967 341.291H343.376V352.941H358.204V341.291H356.967Z" fill="#3F3D56"/>
<path d="M381.504 319.05H367.736V331.759H381.504V319.05Z" fill="#3F3D56"/>
<path d="M381.504 341.291H367.736V352.941H381.504V341.291Z" fill="#3F3D56"/>
<path d="M235 152H255.768C276.251 152 295.895 161.587 310.379 178.653C324.863 195.719 333 218.865 333 243H235V152Z" fill="#3F3D56"/>
<path d="M131.878 395.568H25.0265C17.1882 389.303 16.6483 375.19 24.7746 368.888C31.037 364.031 40.5033 365.33 46.3887 370.383C45.2889 366.621 45.267 362.626 46.3258 358.853C48.24 352.056 52.4942 345.155 58.99 342.407C75.5658 335.403 87.346 350.078 89.7043 358.284C93.9484 352.034 103.442 348.731 109.401 352.938C116.949 358.267 116.608 366.667 110.586 372.696C118.609 371.197 124.652 372.353 130.217 378.335C134.451 382.889 135.1 390.648 131.878 395.568Z" fill="#2A85F5"/>
<path d="M44.698 112.694V116.804H25.8466C23.849 116.804 21.9333 117.597 20.5208 119.01C19.1083 120.422 18.3146 122.338 18.3145 124.336V259.115C18.3145 261.113 19.108 263.029 20.5206 264.441C21.9331 265.854 23.849 266.647 25.8466 266.647H126.468C127.457 266.647 128.436 266.453 129.35 266.074C130.264 265.696 131.094 265.141 131.794 264.441C132.493 263.742 133.048 262.911 133.427 261.998C133.805 261.084 134 260.104 134 259.115V124.336C134 122.338 133.206 120.422 131.794 119.01C130.381 117.597 128.465 116.804 126.468 116.804H107.62V112.694C107.62 111.287 107.061 109.938 106.066 108.943C105.071 107.948 103.722 107.389 102.315 107.389H49.9993C48.593 107.39 47.2446 107.949 46.2505 108.944C45.2564 109.939 44.698 111.288 44.698 112.694Z" fill="#3F3D56"/>
<path d="M25.2808 126.473L25.2808 256.977C25.2808 258.849 26.7986 260.367 28.671 260.367H123.643C125.515 260.367 127.033 258.849 127.033 256.977L127.033 126.473C127.033 124.6 125.515 123.082 123.643 123.082H28.671C26.7986 123.082 25.2808 124.6 25.2808 126.473Z" fill="white"/>
<path d="M51.4429 117.032V129.133C51.4429 130.406 52.475 131.438 53.7481 131.438H98.5659C99.8391 131.438 100.871 130.406 100.871 129.133V117.032C100.871 115.759 99.8391 114.727 98.5659 114.727H53.7481C52.475 114.727 51.4429 115.759 51.4429 117.032Z" fill="#2A85F5"/>
<path d="M46.8431 176.198H35.7565C34.6269 176.198 33.5437 175.749 32.745 174.95C31.9463 174.152 31.4976 173.068 31.4976 171.939V160.852C31.4976 159.723 31.9463 158.639 32.745 157.841C33.5437 157.042 34.6269 156.593 35.7565 156.593H46.8431C47.9727 156.593 49.0559 157.042 49.8546 157.841C50.6533 158.639 51.102 159.723 51.102 160.852V171.942C51.1013 173.071 50.6523 174.153 49.8537 174.951C49.055 175.749 47.9722 176.198 46.8431 176.198ZM35.7565 158.752C35.1998 158.752 34.6662 158.974 34.2725 159.368C33.8789 159.761 33.6575 160.295 33.6568 160.851V171.942C33.6566 172.498 33.8773 173.032 34.2704 173.426C34.6636 173.821 35.197 174.043 35.7538 174.044H46.8404C47.3971 174.043 47.9309 173.822 48.3245 173.428C48.7182 173.035 48.9396 172.501 48.9401 171.944V160.858C48.9394 160.301 48.718 159.767 48.3243 159.374C47.9307 158.98 47.3971 158.759 46.8404 158.758L35.7565 158.752Z" fill="#DEE8F5"/>
<path d="M46.8431 201.108H35.7565C34.6269 201.108 33.5437 200.66 32.745 199.861C31.9463 199.062 31.4976 197.979 31.4976 196.849V185.763C31.4976 184.633 31.9463 183.55 32.745 182.751C33.5437 181.953 34.6269 181.504 35.7565 181.504H46.8431C47.9727 181.504 49.0559 181.953 49.8546 182.751C50.6533 183.55 51.102 184.633 51.102 185.763V196.849C51.102 197.979 50.6533 199.062 49.8546 199.861C49.0559 200.66 47.9727 201.108 46.8431 201.108ZM35.7565 183.663C35.1997 183.664 34.666 183.885 34.2723 184.279C33.8787 184.672 33.6573 185.206 33.6568 185.763V196.849C33.6573 197.406 33.8787 197.94 34.2723 198.334C34.666 198.727 35.1997 198.949 35.7565 198.949H46.8431C47.3998 198.949 47.9336 198.727 48.3272 198.334C48.7209 197.94 48.9423 197.406 48.9428 196.849V185.763C48.9423 185.206 48.7209 184.672 48.3272 184.279C47.9336 183.885 47.3998 183.664 46.8431 183.663H35.7565Z" fill="#DEE8F5"/>
<path d="M46.8431 226.02H35.7565C34.6269 226.02 33.5437 225.571 32.745 224.772C31.9463 223.973 31.4976 222.89 31.4976 221.761V210.674C31.4976 209.544 31.9463 208.461 32.745 207.662C33.5437 206.864 34.6269 206.415 35.7565 206.415H46.8431C47.9727 206.415 49.0559 206.864 49.8546 207.662C50.6533 208.461 51.102 209.544 51.102 210.674V221.761C51.102 222.89 50.6533 223.973 49.8546 224.772C49.0559 225.571 47.9727 226.02 46.8431 226.02ZM35.7565 208.574C35.1997 208.574 34.666 208.795 34.2723 209.189C33.8787 209.583 33.6573 210.117 33.6568 210.673V221.76C33.6573 222.317 33.8787 222.85 34.2723 223.244C34.666 223.638 35.1997 223.859 35.7565 223.86H46.8431C47.3998 223.859 47.9336 223.638 48.3272 223.244C48.7209 222.85 48.9423 222.317 48.9428 221.76V210.673C48.9423 210.117 48.7209 209.583 48.3272 209.189C47.9336 208.795 47.3998 208.574 46.8431 208.574H35.7565Z" fill="#DEE8F5"/>
<path d="M38.9857 170.676C38.8473 170.676 38.7104 170.647 38.5843 170.59C38.4583 170.533 38.3459 170.449 38.2549 170.345L34.9634 166.582C34.7992 166.388 34.718 166.136 34.7371 165.883C34.7563 165.629 34.8743 165.393 35.0659 165.225C35.2574 165.058 35.507 164.972 35.7611 164.987C36.0152 165.001 36.2533 165.115 36.4243 165.304L39.0911 168.353L46.2799 162.343C46.4785 162.191 46.7282 162.121 46.9769 162.148C47.2255 162.176 47.454 162.298 47.6146 162.49C47.7753 162.682 47.8556 162.928 47.8389 163.178C47.8222 163.428 47.7098 163.661 47.5251 163.83L39.6076 170.45C39.4333 170.596 39.2131 170.676 38.9857 170.676Z" fill="#CFCFCF"/>
<path d="M38.9857 195.587C38.8472 195.587 38.7104 195.557 38.5843 195.5C38.4583 195.443 38.346 195.359 38.2549 195.255L34.9634 191.492C34.7992 191.298 34.718 191.047 34.7371 190.793C34.7563 190.539 34.8743 190.303 35.0659 190.135C35.2574 189.968 35.507 189.882 35.7611 189.897C36.0152 189.912 36.2533 190.025 36.4243 190.214L39.0911 193.263L46.2799 187.253C46.4785 187.101 46.7282 187.031 46.9769 187.059C47.2255 187.086 47.454 187.208 47.6146 187.4C47.7753 187.592 47.8556 187.839 47.8389 188.088C47.8222 188.338 47.7098 188.571 47.5251 188.74L39.6076 195.358C39.4338 195.506 39.2135 195.587 38.9857 195.587Z" fill="#CFCFCF"/>
<path d="M38.9859 220.497C38.8474 220.497 38.7106 220.467 38.5845 220.41C38.4585 220.353 38.3461 220.269 38.2551 220.165L34.9636 216.402C34.8797 216.306 34.8155 216.195 34.7747 216.074C34.7339 215.954 34.7173 215.826 34.7258 215.699C34.7343 215.572 34.7678 215.447 34.8243 215.333C34.8808 215.219 34.9593 215.117 35.0552 215.033C35.1511 214.949 35.2626 214.885 35.3833 214.844C35.5041 214.803 35.6316 214.787 35.7588 214.795C35.8859 214.804 36.0102 214.837 36.1244 214.894C36.2386 214.95 36.3406 215.029 36.4245 215.125L39.0913 218.173L46.2801 212.163C46.4787 212.011 46.7284 211.941 46.977 211.969C47.2257 211.996 47.4542 212.119 47.6148 212.31C47.7754 212.502 47.8558 212.749 47.8391 212.998C47.8224 213.248 47.71 213.482 47.5253 213.65L39.6078 220.269C39.434 220.416 39.2137 220.497 38.9859 220.497Z" fill="#CFCFCF"/>
<g opacity="0.62">
<path d="M57.0982 165.104C56.3844 165.104 55.8057 165.683 55.8057 166.396C55.8057 167.11 56.3844 167.689 57.0982 167.689H118.485C119.199 167.689 119.778 167.11 119.778 166.396C119.778 165.683 119.199 165.104 118.485 165.104H57.0982Z" fill="#DEE8F5"/>
<path d="M57.0982 157.179C56.3844 157.179 55.8057 157.758 55.8057 158.472C55.8057 159.185 56.3844 159.764 57.0982 159.764H118.485C119.199 159.764 119.778 159.185 119.778 158.472C119.778 157.758 119.199 157.179 118.485 157.179H57.0982Z" fill="#DEE8F5"/>
<path d="M57.0987 173.03C56.3848 173.03 55.8062 173.608 55.8062 174.322C55.8062 175.036 56.3848 175.615 57.0987 175.615H107.701C108.415 175.615 108.994 175.036 108.994 174.322C108.994 173.608 108.415 173.03 107.701 173.03H57.0987Z" fill="#DEE8F5"/>
</g>
<g opacity="0.62">
<path d="M57.0987 190.015C56.3848 190.015 55.8062 190.594 55.8062 191.308C55.8062 192.021 56.3848 192.6 57.0987 192.6H118.486C119.2 192.6 119.778 192.021 119.778 191.308C119.778 190.594 119.2 190.015 118.486 190.015H57.0987Z" fill="#DEE8F5"/>
<path d="M57.0982 182.09C56.3844 182.09 55.8057 182.669 55.8057 183.383C55.8057 184.097 56.3844 184.675 57.0982 184.675H118.485C119.199 184.675 119.778 184.097 119.778 183.383C119.778 182.669 119.199 182.09 118.485 182.09H57.0982Z" fill="#DEE8F5"/>
<path d="M57.0987 197.94C56.3848 197.94 55.8062 198.519 55.8062 199.233C55.8062 199.947 56.3848 200.525 57.0987 200.525H107.701C108.415 200.525 108.994 199.947 108.994 199.233C108.994 198.519 108.415 197.94 107.701 197.94H57.0987Z" fill="#DEE8F5"/>
</g>
<g opacity="0.62">
<path d="M57.0987 214.925C56.3848 214.925 55.8062 215.504 55.8062 216.218C55.8062 216.932 56.3848 217.51 57.0987 217.51H118.486C119.2 217.51 119.778 216.932 119.778 216.218C119.778 215.504 119.2 214.925 118.486 214.925H57.0987Z" fill="#DEE8F5"/>
<path d="M57.0982 207.001C56.3844 207.001 55.8057 207.579 55.8057 208.293C55.8057 209.007 56.3844 209.586 57.0982 209.586H118.485C119.199 209.586 119.778 209.007 119.778 208.293C119.778 207.579 119.199 207.001 118.485 207.001H57.0982Z" fill="#DEE8F5"/>
<path d="M57.0992 222.851C56.3853 222.851 55.8066 223.429 55.8066 224.143C55.8066 224.857 56.3853 225.436 57.0992 225.436H107.702C108.416 225.436 108.994 224.857 108.994 224.143C108.994 223.429 108.416 222.851 107.702 222.851H57.0992Z" fill="#DEE8F5"/>
</g>
<path d="M49.9839 138.134C49.139 138.134 48.4541 138.819 48.4541 139.664C48.4541 140.509 49.139 141.194 49.9839 141.194H102.33C103.175 141.194 103.86 140.509 103.86 139.664C103.86 138.819 103.175 138.134 102.33 138.134H49.9839Z" fill="#D7E8F4"/>
<path d="M56.3653 144.999C55.5204 144.999 54.8354 145.684 54.8354 146.529C54.8354 147.374 55.5204 148.059 56.3653 148.059H95.948C96.7929 148.059 97.4779 147.374 97.4779 146.529C97.4779 145.684 96.7929 144.999 95.948 144.999H56.3653Z" fill="#D7E8F4"/>
<path d="M105.042 240.916C104.658 239.136 104.545 237.266 103.25 235.876C102.546 235.12 101.742 234.483 100.643 234.843C99.304 235.285 99.2426 236.559 99.124 237.75C98.8008 241.084 99.1236 244.448 100.075 247.662C100.919 250.529 102.244 253.998 104.607 255.988C105.089 256.411 105.658 256.725 106.275 256.91C106.891 257.094 107.541 257.145 108.179 257.057C108.817 256.97 109.428 256.747 109.971 256.403C110.514 256.06 110.975 255.604 111.322 255.068C112.067 253.995 112.531 252.756 112.674 251.463C112.817 250.169 112.634 248.86 112.142 247.654C111.399 245.733 109.203 242.648 106.758 243.029C104.101 243.443 103.987 246.876 105.936 248.202C109.174 250.398 112.228 247.016 114.116 244.763C114.518 244.288 114.719 243.827 115.143 244.682C115.279 244.96 115.321 245.279 115.46 245.566C115.584 245.852 115.775 246.105 116.016 246.305C116.257 246.505 116.542 246.645 116.849 246.716C117.727 246.779 118.607 246.607 119.395 246.218L122.789 245.052C123.699 244.74 123.308 243.298 122.386 243.614C121.115 244.051 119.844 244.492 118.566 244.925C117.969 245.124 117.232 245.545 116.809 244.895C116.522 244.456 116.498 243.882 116.194 243.433C116.022 243.145 115.769 242.912 115.465 242.765C115.162 242.617 114.821 242.561 114.485 242.602C113.58 242.762 112.993 243.778 112.458 244.425C111.768 245.371 110.912 246.188 109.931 246.836C108.834 247.467 106.995 247.745 106.231 246.431C106.098 246.216 106.031 245.968 106.038 245.716C106.045 245.465 106.125 245.22 106.269 245.013C106.758 244.327 107.406 244.492 108.069 244.887C108.935 245.425 109.655 246.163 110.169 247.037C110.691 247.883 111.024 248.83 111.145 249.814C111.266 250.797 111.174 251.795 110.873 252.741C110.123 254.929 107.798 256.662 105.67 254.942C103.897 253.509 102.841 250.988 102.074 248.919C101.22 246.63 100.708 244.23 100.553 241.795C100.47 240.449 100.496 239.1 100.629 237.759C100.692 237.121 100.652 235.828 101.691 236.443C101.961 236.653 102.198 236.901 102.394 237.18C103.261 238.256 103.299 240.036 103.581 241.322C103.782 242.261 105.238 241.863 105.035 240.924L105.042 240.916Z" fill="#CFCFCF"/>
<path d="M18.3147 141.629C28.4297 141.629 36.6295 133.43 36.6295 123.315C36.6295 113.2 28.4297 105 18.3147 105C8.19978 105 0 113.2 0 123.315C0 133.43 8.19978 141.629 18.3147 141.629Z" fill="#2A85F5"/>
<g opacity="0.29">
<path d="M18.3146 135.187C24.8717 135.187 30.1873 129.872 30.1873 123.315C30.1873 116.757 24.8717 111.442 18.3146 111.442C11.7575 111.442 6.44189 116.757 6.44189 123.315C6.44189 129.872 11.7575 135.187 18.3146 135.187Z" fill="white"/>
</g>
<path d="M14.4287 127.556L15.5363 125.838C16.414 126.511 17.1818 126.854 17.9984 126.854C18.9773 126.854 19.4079 126.448 19.4079 125.662C19.4079 123.885 14.849 123.917 14.849 120.801C14.849 118.798 16.2366 117.522 18.4249 117.522C19.0464 117.513 19.6624 117.64 20.2301 117.893C20.7978 118.146 21.3037 118.519 21.7126 118.987L20.4423 120.442C19.8144 119.872 19.2823 119.571 18.5613 119.571C17.7304 119.571 17.2796 119.906 17.2796 120.682C17.2796 122.329 21.8384 122.185 21.8384 125.486C21.8384 127.469 20.527 128.903 17.9977 128.903C16.6893 128.874 15.4302 128.398 14.4287 127.556ZM17.466 115.829H19.1521V118.316H17.466V115.829ZM17.466 127.866H19.1521V130.595H17.466V127.866Z" fill="white"/>
</svg>
