<svg width="492" height="396" viewBox="0 0 492 396" fill="none" xmlns="http://www.w3.org/2000/svg">
<path opacity="0.1" d="M491.5 246.027C491.585 300.26 473.581 352.977 440.332 395.856H51.6679C18.4186 352.977 0.415451 300.26 0.500299 246.027C0.500299 110.618 110.418 0.855957 246.005 0.855957C381.592 0.855957 491.5 110.622 491.5 246.027Z" fill="#98A0B5"/>
<path d="M162.048 394.355V208.936C162.048 207.794 162.502 206.699 163.309 205.892C164.117 205.084 165.212 204.63 166.354 204.63H185.569C186.711 204.63 187.806 205.084 188.613 205.892C189.421 206.699 189.875 207.794 189.875 208.936V394.839L162.048 394.355Z" fill="#3F3D56"/>
<path d="M225.513 394.936V247.503C225.513 246.361 225.966 245.266 226.774 244.458C227.581 243.651 228.677 243.197 229.819 243.197H249.034C250.176 243.197 251.271 243.651 252.078 244.458C252.886 245.266 253.339 246.361 253.339 247.503V394.619L225.513 394.936Z" fill="#3F3D56"/>
<path d="M112.741 219.774C112.458 219.773 112.181 219.691 111.944 219.538C111.706 219.384 111.519 219.164 111.404 218.906C111.288 218.648 111.25 218.362 111.294 218.082C111.338 217.803 111.462 217.542 111.65 217.331L175.899 145.67L239.128 181.175L302.734 71.5781L367.53 124.91C367.679 125.033 367.802 125.183 367.892 125.353C367.983 125.522 368.039 125.708 368.058 125.9C368.077 126.091 368.057 126.285 368.001 126.469C367.945 126.653 367.853 126.824 367.731 126.973C367.609 127.121 367.458 127.244 367.289 127.335C367.119 127.425 366.933 127.481 366.741 127.5C366.55 127.518 366.356 127.499 366.172 127.443C365.988 127.386 365.817 127.294 365.669 127.172L303.536 76.0319L240.212 185.143L176.512 149.373L113.831 219.287C113.694 219.44 113.526 219.563 113.338 219.647C113.15 219.731 112.946 219.774 112.741 219.774Z" fill="#3F3D56"/>
<path d="M370.831 143.128C378.38 143.128 384.5 137.008 384.5 129.459C384.5 121.909 378.38 115.789 370.831 115.789C363.282 115.789 357.162 121.909 357.162 129.459C357.162 137.008 363.282 143.128 370.831 143.128Z" fill="#2A85F5"/>
<path d="M374.667 125C373.732 126.775 372.814 128.511 371.881 130.277H374.175V131.527H371.522V132.153H374.16V133.396H371.515V136.335H369.157V133.396H366.497V132.173H369.137V131.54H366.503V130.299H368.795L366 125.009H367.131C367.549 125.009 367.966 125.009 368.385 125.009C368.433 125 368.483 125.009 368.524 125.036C368.566 125.063 368.595 125.105 368.607 125.154C369.155 126.448 369.706 127.742 370.261 129.033C370.283 129.085 370.309 129.133 370.351 129.221C370.4 129.119 370.433 129.058 370.46 128.995C371.019 127.72 371.577 126.445 372.136 125.172C372.165 125.106 372.245 125.02 372.302 125.018C373.065 124.998 373.843 125 374.667 125Z" fill="white"/>
<path d="M112.497 231.978C120.046 231.978 126.166 225.858 126.166 218.309C126.166 210.76 120.046 204.64 112.497 204.64C104.948 204.64 98.8276 210.76 98.8276 218.309C98.8276 225.858 104.948 231.978 112.497 231.978Z" fill="#2A85F5"/>
<path d="M109.537 221.706L110.491 220.228C111.078 220.751 111.825 221.059 112.611 221.102C113.454 221.102 113.824 220.752 113.824 220.076C113.824 218.545 109.899 218.573 109.899 215.89C109.899 214.165 111.094 213.066 112.978 213.066C113.513 213.059 114.043 213.168 114.532 213.385C115.021 213.603 115.457 213.925 115.809 214.328L114.715 215.581C114.509 215.354 114.259 215.171 113.981 215.042C113.703 214.913 113.402 214.841 113.096 214.83C112.38 214.83 111.992 215.119 111.992 215.786C111.992 217.205 115.917 217.081 115.917 219.924C115.917 221.631 114.786 222.866 112.611 222.866C111.484 222.841 110.399 222.432 109.537 221.706ZM112.152 211.609H113.603V213.751H112.152V211.609ZM112.152 221.974H113.603V224.323H112.152V221.974Z" fill="white"/>
<path d="M175.961 161.191C183.511 161.191 189.631 155.071 189.631 147.522C189.631 139.972 183.511 133.852 175.961 133.852C168.412 133.852 162.292 139.972 162.292 147.522C162.292 155.071 168.412 161.191 175.961 161.191Z" fill="#CCCCCC"/>
<path d="M179.396 143.756L180.75 141.945C180.248 141.319 179.628 140.823 178.933 140.492C177.329 139.73 175.735 139.887 174.199 140.73C172.663 141.573 171.767 143.032 171.259 144.799C171.093 145.38 171.096 145.38 170.541 145.38H169V147.06H170.922V147.932H169.003V149.627H171.083C171.722 152.449 173.126 154.405 175.817 154.888C176.771 155.097 177.759 155.012 178.673 154.643C179.587 154.274 180.392 153.635 181 152.795C180.545 152.214 180.101 151.633 179.648 151.034C179.038 151.731 178.386 152.321 177.513 152.487C177.094 152.584 176.662 152.585 176.243 152.492C175.824 152.399 175.427 152.212 175.075 151.944C174.352 151.38 173.957 150.575 173.702 149.618H178.594V147.932H173.492V147.06H178.591V145.378H173.726C174.089 144.102 174.723 143.108 175.872 142.663C177.234 142.137 178.402 142.602 179.396 143.756Z" fill="#1151A6"/>
<path d="M239.426 196.829C246.975 196.829 253.095 190.709 253.095 183.159C253.095 175.61 246.975 169.49 239.426 169.49C231.876 169.49 225.756 175.61 225.756 183.159C225.756 190.709 231.876 196.829 239.426 196.829Z" fill="#E6E6E6"/>
<path d="M238.571 187.733C238.813 187.263 238.96 186.748 239.003 186.218C239.046 185.689 238.984 185.156 238.82 184.652H240.76V183.005C239.998 183.005 239.256 182.979 238.517 183.005C238.369 183.028 238.219 182.995 238.092 182.914C237.965 182.833 237.871 182.709 237.826 182.564C237.22 181.275 237.382 179.964 238.327 179.011C239.273 178.058 240.76 177.856 241.763 179.103C242.094 179.565 242.397 180.048 242.669 180.548C242.76 180.695 242.831 180.86 242.913 181.024L245 180.091C244.717 179.589 244.487 179.106 244.207 178.647C243.72 177.757 242.995 177.027 242.117 176.542C240.395 175.661 238.732 175.877 237.223 177.024C236.484 177.549 235.906 178.276 235.555 179.122C235.204 179.968 235.095 180.898 235.24 181.804C235.291 182.203 235.408 182.592 235.501 183.023H234V184.666C234.725 184.666 235.433 184.666 236.141 184.666C236.223 184.666 236.353 184.689 236.379 184.744C236.594 185.192 236.835 185.651 236.708 186.188C236.563 186.786 236.281 187.34 235.885 187.803C235.488 188.267 234.989 188.627 234.428 188.854L234.28 188.929C234.535 189.628 234.787 190.31 235.039 191C235.164 190.954 235.26 190.925 235.348 190.884C235.742 190.7 236.127 190.489 236.526 190.327C237.503 189.934 238.489 189.796 239.492 190.249C239.741 190.362 239.996 190.466 240.251 190.575C241.763 191.234 243.105 190.763 244.419 189.946L243.459 187.78C243.287 187.887 243.148 187.982 243.001 188.068C242.355 188.418 241.675 188.684 240.944 188.435C240.214 188.187 239.441 187.777 238.571 187.733Z" fill="#3F3D56"/>
<path d="M302.89 87.4743C310.44 87.4743 316.56 81.3544 316.56 73.805C316.56 66.2557 310.44 60.1357 302.89 60.1357C295.341 60.1357 289.221 66.2557 289.221 73.805C289.221 81.3544 295.341 87.4743 302.89 87.4743Z" fill="#2A85F5"/>
<path d="M300 76.0973L300.954 74.6184C301.541 75.1414 302.289 75.4496 303.074 75.4926C303.917 75.4926 304.288 75.1433 304.288 74.4664C304.288 72.9363 300.363 72.9639 300.363 70.2807C300.363 68.5558 301.557 67.4572 303.441 67.4572C303.976 67.4496 304.507 67.5585 304.996 67.7763C305.484 67.9941 305.92 68.3157 306.272 68.7187L305.179 69.9717C304.972 69.7448 304.723 69.5614 304.445 69.4325C304.167 69.3036 303.865 69.2316 303.559 69.221C302.844 69.221 302.455 69.5097 302.455 70.1774C302.455 71.5957 306.38 71.4717 306.38 74.3144C306.38 76.0215 305.249 77.2569 303.074 77.2569C301.947 77.2315 300.863 76.8224 300 76.0973ZM302.615 66H304.066V68.1416H302.615V66ZM302.615 76.3644H304.066V78.7141H302.615V76.3644Z" fill="white"/>
<path d="M352.441 394.279V180.573C352.441 177.832 354.369 175.61 356.747 175.61H375.962C378.34 175.61 380.268 177.831 380.268 180.573V394.839L352.441 394.279Z" fill="#3F3D56"/>
<path d="M98.583 394.57V291.395C98.583 290.072 100.511 288.999 102.889 288.999H122.104C124.482 288.999 126.41 290.073 126.41 291.395V394.839L98.583 394.57Z" fill="#3F3D56"/>
<path d="M379.735 396.01H74.8722C74.7735 396.01 74.6788 395.958 74.609 395.867C74.5392 395.775 74.5 395.651 74.5 395.522C74.5 395.392 74.5392 395.268 74.609 395.176C74.6788 395.085 74.7735 395.033 74.8722 395.033H379.734C379.833 395.033 379.927 395.085 379.997 395.176C380.067 395.268 380.106 395.392 380.106 395.522C380.106 395.651 380.067 395.775 379.997 395.867C379.927 395.958 379.833 396.01 379.734 396.01H379.735Z" fill="#E6E6E6"/>
<path d="M288.977 394.206V151.689C288.977 148.578 290.904 146.057 293.282 146.057H312.498C314.875 146.057 316.803 148.578 316.803 151.689V394.838L288.977 394.206Z" fill="#2A85F5"/>
</svg>
