<svg width="516" height="395" viewBox="0 0 516 395" fill="none" xmlns="http://www.w3.org/2000/svg">
<path opacity="0.1" d="M503 245.181C503.087 299.414 484.643 352.13 450.582 395.01H52.4184C18.3565 352.13 -0.0866156 299.414 0.000305839 245.181C0.000305839 109.772 112.605 0.00976562 251.506 0.00976562C390.406 0.00976562 503 109.776 503 245.181Z" fill="#98A0B5"/>
<path d="M496.53 283.036L495.739 282.82C496.214 281.165 496.636 279.472 496.991 277.788L497.797 277.94C497.438 279.645 497.011 281.359 496.53 283.036ZM494.901 288.034C494.302 289.671 493.635 291.31 492.922 292.906L492.177 292.569C492.882 290.993 493.539 289.374 494.131 287.755L494.901 288.034ZM498.695 272.777L497.878 272.689C498.11 270.989 498.284 269.26 498.394 267.55L499.218 267.572C499.107 269.304 498.931 271.055 498.695 272.777ZM490.61 297.627C489.786 299.169 488.9 300.698 487.975 302.17L487.289 301.719C488.204 300.264 489.079 298.755 489.892 297.232L490.61 297.627ZM499.364 262.358L498.54 262.401C498.526 260.697 498.45 258.971 498.312 257.271L499.135 257.163C499.273 258.884 499.351 260.632 499.364 262.358ZM485.027 306.51C483.997 307.914 482.906 309.297 481.782 310.619L481.174 310.063C482.285 308.758 483.362 307.392 484.379 306.006L485.027 306.51ZM498.529 252.016L497.713 252.187C497.454 250.512 497.13 248.828 496.749 247.183L497.553 246.949C497.938 248.615 498.265 250.32 498.529 252.016L498.529 252.016ZM478.259 314.472C477.046 315.705 475.774 316.909 474.477 318.051L473.96 317.401C475.241 316.274 476.497 315.087 477.694 313.869L478.259 314.472ZM496.214 241.983L495.428 242.278C494.93 240.671 494.368 239.066 493.753 237.508L494.52 237.153C495.14 238.732 495.71 240.357 496.214 241.984L496.214 241.983ZM470.458 321.327C469.089 322.363 467.665 323.361 466.227 324.292L465.813 323.565C467.233 322.646 468.639 321.661 469.991 320.639L470.458 321.327ZM492.477 232.486L491.736 232.898C491.011 231.397 490.221 229.907 489.388 228.471L490.099 228.003C490.943 229.457 491.743 230.965 492.477 232.486ZM461.808 326.927C460.312 327.745 458.77 328.515 457.226 329.216L456.923 328.429C458.448 327.736 459.971 326.976 461.448 326.168L461.808 326.927ZM487.398 223.733L486.72 224.255C485.782 222.892 484.784 221.553 483.746 220.273L484.387 219.701C485.435 220.998 486.448 222.354 487.398 223.734L487.398 223.733ZM452.507 331.149C450.92 331.73 449.296 332.257 447.677 332.715L447.492 331.884C449.091 331.432 450.695 330.912 452.263 330.338L452.507 331.149ZM481.083 215.931L480.484 216.55C479.355 215.359 478.166 214.201 476.949 213.106L477.503 212.444C478.734 213.552 479.939 214.725 481.083 215.931ZM442.765 333.905C441.122 334.237 439.449 334.508 437.795 334.711L437.732 333.856C439.366 333.655 441.018 333.387 442.64 333.06L442.765 333.905ZM473.672 209.262L473.166 209.964C471.873 208.975 470.523 208.024 469.153 207.138L469.608 206.401C470.993 207.297 472.36 208.26 473.669 209.261L473.672 209.262Z" fill="#292A2E"/>
<path d="M52.8321 97.1842L51.8799 96.7192C52.3592 95.7841 52.8774 94.8489 53.4153 93.9475L54.3361 94.4702C53.8094 95.3529 53.3029 96.2662 52.8321 97.1842Z" fill="#292A2E"/>
<path d="M145.56 111.105C145.24 109.162 144.798 107.24 144.238 105.35L145.261 105.061C145.833 106.992 146.284 108.955 146.612 110.939L145.56 111.105ZM142.205 99.7953C141.412 97.9861 140.508 96.2256 139.496 94.5236L140.417 94.004C141.451 95.7426 142.376 97.5411 143.186 99.3895L142.205 99.7953ZM136.147 89.6124C134.928 88.0459 133.612 86.5537 132.205 85.1444L132.969 84.4171C134.406 85.8574 135.751 87.3825 136.997 88.9838L136.147 89.6124ZM57.6906 89.5604L56.8428 88.9318C58.0903 87.3317 59.4374 85.8078 60.8765 84.3687L61.6387 85.0961C60.2306 86.5043 58.9128 87.9957 57.6928 89.562L57.6906 89.5604ZM127.725 81.1819C126.149 79.9528 124.498 78.8193 122.78 77.7878L123.339 76.9046C125.094 77.9586 126.781 79.1166 128.391 80.372L127.725 81.1819ZM66.1214 81.1383L65.4567 80.3262C67.0671 79.0723 68.7551 77.916 70.5109 76.864L71.0685 77.7473C69.3505 78.7783 67.6991 79.9113 66.1235 81.1398L66.1214 81.1383ZM117.45 75.0078C115.617 74.1859 113.735 73.4737 111.814 72.8751L112.137 71.8853C114.1 72.4967 116.023 73.2242 117.895 74.0638L117.45 75.0078ZM76.4065 74.9802L75.9645 74.0352C77.839 73.2009 79.7637 72.4786 81.7281 71.8724L82.0476 72.8631C80.125 73.4567 78.2412 74.1637 76.4065 74.9802ZM105.956 71.4344C103.973 71.0722 101.97 70.8293 99.9572 70.707L100.023 69.668C102.08 69.7922 104.126 70.04 106.152 70.4099L105.956 71.4344ZM87.9135 71.4313L87.7185 70.4083C89.744 70.0408 91.7906 69.7943 93.8469 69.67L93.9124 70.7091C91.8996 70.8301 89.8962 71.0708 87.9135 71.4297V71.4313Z" fill="#292A2E"/>
<path d="M147.232 120.107L146.167 120.078C146.196 119.057 146.192 118.019 146.153 116.994L147.218 116.957C147.258 118.003 147.262 119.064 147.232 120.107Z" fill="#292A2E"/>
<path d="M410.402 148.681H86.9774C76.5259 148.681 68.0532 152.935 68.0532 158.182V370.179C68.0532 375.427 76.5259 379.681 86.9774 379.681H410.402C420.854 379.681 429.326 375.427 429.326 370.179V158.182C429.326 152.935 420.854 148.681 410.402 148.681Z" fill="#E6E8F0"/>
<path d="M69.3953 394.154L426.215 394.154C434.977 394.154 442.081 387.075 442.081 378.344L442.081 118.018C442.081 109.286 434.977 102.208 426.215 102.208L69.3953 102.208C60.6328 102.208 53.5293 109.286 53.5293 118.018L53.5293 378.344C53.5293 387.075 60.6328 394.154 69.3953 394.154Z" fill="white"/>
<path d="M283.813 374.3V228.076C283.813 227.176 284.173 226.312 284.814 225.675C285.455 225.038 286.324 224.681 287.23 224.681H302.475C303.381 224.681 304.25 225.038 304.891 225.675C305.531 226.312 305.891 227.176 305.891 228.076V374.681L283.813 374.3Z" fill="#3F3D56"/>
<path d="M248.689 375.546V323.88C248.689 323.562 249.049 323.257 249.69 323.032C250.331 322.807 251.2 322.681 252.106 322.681H267.351C268.257 322.681 269.126 322.807 269.767 323.032C270.407 323.257 270.767 323.562 270.767 323.88V375.681L248.689 375.546Z" fill="#3F3D56"/>
<path d="M333.99 374.681V258.086C333.99 257.183 334.35 256.317 334.991 255.678C335.632 255.039 336.5 254.681 337.406 254.681H352.652C353.558 254.681 354.427 255.039 355.067 255.678C355.708 256.317 356.068 257.183 356.068 258.086V374.43L333.99 374.681Z" fill="#3F3D56"/>
<path d="M384.167 374.183V183.118C384.167 180.667 385.697 178.681 387.583 178.681H402.829C404.715 178.681 406.245 180.667 406.245 183.118V374.681L384.167 374.183Z" fill="#2A85F5"/>
<path d="M53 378.344V118.018C53.0049 113.686 54.7338 109.534 57.8073 106.471C60.8809 103.408 65.0482 101.686 69.3948 101.681H426.214C430.561 101.686 434.728 103.408 437.802 106.471C440.875 109.534 442.604 113.686 442.609 118.018V378.344C442.604 382.675 440.875 386.828 437.802 389.89C434.728 392.953 430.561 394.676 426.214 394.681H69.3948C65.0482 394.676 60.8809 392.953 57.8073 389.89C54.7338 386.828 53.0049 382.675 53 378.344ZM69.3948 102.735C65.3286 102.739 61.4304 104.351 58.5551 107.216C55.6799 110.081 54.0625 113.966 54.0577 118.018V378.344C54.0624 382.396 55.6797 386.28 58.555 389.145C61.4302 392.01 65.3286 393.622 69.3948 393.627H426.214C430.28 393.622 434.179 392.011 437.054 389.145C439.929 386.28 441.547 382.396 441.551 378.344V118.018C441.547 113.966 439.929 110.081 437.054 107.216C434.179 104.351 430.28 102.739 426.214 102.735H69.3948Z" fill="#333B52"/>
<path d="M53.5293 118.016V133.925H442.078V118.016C442.078 113.823 440.407 109.802 437.431 106.837C434.456 103.872 430.42 102.206 426.212 102.206H69.3953C65.1873 102.206 61.1518 103.872 58.1763 106.837C55.2009 109.802 53.5293 113.823 53.5293 118.016Z" fill="#333B52"/>
<path d="M207.811 239.052C207.811 249.575 204.679 259.863 198.812 268.613C192.945 277.363 184.606 284.183 174.849 288.21C165.092 292.238 154.355 293.291 143.997 291.238C133.639 289.185 124.125 284.118 116.657 276.676C109.189 269.235 104.104 259.754 102.043 249.433C99.9828 239.111 101.04 228.413 105.082 218.69C109.123 208.967 115.967 200.657 124.748 194.811C133.529 188.964 143.853 185.843 154.414 185.843V239.052H207.811Z" fill="#2A85F5"/>
<path d="M214.358 232.14H160.964V178.932C175.125 178.932 188.706 184.539 198.719 194.517C208.733 204.495 214.358 218.029 214.358 232.14Z" fill="#333B52"/>
<path d="M99.0453 322.444C101.023 322.444 102.626 320.847 102.626 318.877C102.626 316.906 101.023 315.309 99.0453 315.309C97.0679 315.309 95.4648 316.906 95.4648 318.877C95.4648 320.847 97.0679 322.444 99.0453 322.444Z" fill="#2A85F5"/>
<path d="M221.716 318.878C221.716 319.414 221.502 319.927 221.122 320.306C220.742 320.684 220.227 320.897 219.69 320.897H112.292C111.813 320.905 111.345 320.75 110.968 320.456C110.59 320.163 110.325 319.749 110.218 319.284C110.158 318.99 110.164 318.687 110.236 318.396C110.308 318.105 110.444 317.834 110.634 317.602C110.825 317.37 111.064 317.183 111.336 317.054C111.608 316.926 111.905 316.859 112.206 316.859H219.69C219.956 316.859 220.22 316.912 220.465 317.013C220.711 317.115 220.934 317.263 221.123 317.451C221.311 317.638 221.46 317.861 221.562 318.106C221.663 318.351 221.716 318.613 221.716 318.878Z" fill="#2A85F5"/>
<path d="M459.752 230.679C476.737 230.679 490.505 217.248 490.505 200.68C490.505 184.112 476.737 170.681 459.752 170.681C442.768 170.681 429 184.112 429 200.68C429 217.248 442.768 230.679 459.752 230.679Z" fill="#367CFF"/>
<path d="M450.436 212.933L452.951 208.369C455.314 209.864 457.336 210.555 459.421 210.372C461.919 210.154 462.944 209.037 462.801 207.062C462.479 202.596 450.851 203.695 450.282 195.861C449.919 190.825 453.229 187.308 458.815 186.82C460.4 186.658 461.996 186.838 463.491 187.348C464.986 187.857 466.346 188.683 467.474 189.769L464.496 193.711C462.79 192.416 461.377 191.779 459.536 191.94C457.414 192.126 456.326 193.068 456.467 195.018C456.765 199.157 468.375 197.779 468.974 206.075C469.334 211.059 466.245 214.958 459.793 215.521C456.447 215.74 453.146 214.827 450.436 212.933ZM456.062 182.781L460.362 182.404L460.813 188.656L456.513 189.031L456.062 182.781ZM458.247 213.034L462.546 212.658L463.041 219.517L458.741 219.893L458.247 213.034Z" fill="white"/>
<path d="M63.7525 133.679C80.7366 133.679 94.505 120.248 94.505 103.68C94.505 87.1118 80.7366 73.6807 63.7525 73.6807C46.7684 73.6807 33 87.1118 33 103.68C33 120.248 46.7684 133.679 63.7525 133.679Z" fill="#367CFF"/>
<path d="M70.3837 104.084C69.3545 106.261 67.6498 108.067 65.5107 109.247C63.3715 110.427 60.9063 110.921 58.4636 110.659C56.021 110.397 53.7246 109.392 51.8993 107.787C50.074 106.182 48.8122 104.058 48.2925 101.715C47.7727 99.3721 48.0212 96.9291 49.0029 94.7315C49.9845 92.5339 51.6497 90.693 53.7627 89.4692C55.8757 88.2455 58.3297 87.7008 60.7775 87.9122C63.2253 88.1237 65.543 89.0805 67.4027 90.6474C69.3237 92.2705 70.6528 94.4579 71.1903 96.8809C71.7279 99.3039 71.4448 101.832 70.3837 104.084ZM51.4814 95.5973C50.5143 97.6398 50.377 99.9641 51.0972 102.101C51.8174 104.239 53.3414 106.03 55.362 107.115C57.3827 108.2 59.7498 108.496 61.986 107.946C64.2222 107.395 66.1613 106.038 67.4125 104.148C68.6636 102.258 69.1336 99.9757 68.7278 97.7609C68.322 95.5462 67.0706 93.5638 65.2258 92.2135C63.3811 90.8632 61.0801 90.2454 58.7868 90.4846C56.4935 90.7238 54.3785 91.8022 52.868 93.5024C52.3074 94.1338 51.8406 94.839 51.4814 95.5973Z" fill="white"/>
<path d="M79.3575 118.747C79.2675 118.937 79.1311 119.103 78.9604 119.229C78.7897 119.356 78.5899 119.44 78.3782 119.474C78.1665 119.508 77.9495 119.491 77.7461 119.425C77.5427 119.358 77.359 119.244 77.2111 119.093L66.0933 107.676C65.9745 107.554 65.8814 107.41 65.8195 107.253C65.7575 107.096 65.7279 106.928 65.7324 106.76C65.7368 106.592 65.7751 106.426 65.8452 106.272C65.9153 106.118 66.0158 105.979 66.1409 105.863C66.266 105.747 66.4133 105.657 66.5744 105.596C66.7355 105.536 66.9072 105.507 67.0797 105.511C67.2522 105.515 67.4221 105.553 67.5798 105.621C67.7375 105.69 67.8798 105.788 67.9987 105.91L79.1158 117.327C79.2971 117.513 79.417 117.748 79.4601 118.001C79.5032 118.254 79.4675 118.514 79.3575 118.747Z" fill="white"/>
</svg>
