<svg width="31" height="31" viewBox="0 0 31 31" fill="none" xmlns="http://www.w3.org/2000/svg">
<path d="M28.4168 28.4165H2.5835C2.05391 28.4165 1.61475 27.9773 1.61475 27.4478C1.61475 26.9182 2.05391 26.479 2.5835 26.479H28.4168C28.9464 26.479 29.3856 26.9182 29.3856 27.4478C29.3856 27.9773 28.9464 28.4165 28.4168 28.4165Z" fill="#2A85F5"/>
<path d="M12.5938 5.16683V28.4168H18.4062V5.16683C18.4062 3.746 17.825 2.5835 16.0812 2.5835H14.9187C13.175 2.5835 12.5938 3.746 12.5938 5.16683ZM3.875 12.9168V28.4168H9.04167V12.9168C9.04167 11.496 8.525 10.3335 6.975 10.3335H5.94167C4.39167 10.3335 3.875 11.496 3.875 12.9168ZM21.9583 19.3752V28.4168H27.125V19.3752C27.125 17.9543 26.6083 16.7918 25.0583 16.7918H24.025C22.475 16.7918 21.9583 17.9543 21.9583 19.3752Z" fill="#2A85F5"/>
</svg>
