<svg width="42" height="42" viewBox="0 0 42 42" fill="none" xmlns="http://www.w3.org/2000/svg">
<path d="M21 20.1792C16.17 20.1792 12.25 24.0992 12.25 28.9292C12.25 30.2242 12.53 31.4492 13.055 32.5342C13.195 32.8492 13.3525 33.1467 13.5275 33.4267C14.2966 34.7233 15.3901 35.7973 16.7004 36.5429C18.0106 37.2886 19.4924 37.6802 21 37.6792C24.185 37.6792 26.9675 35.9642 28.4725 33.4267C28.6475 33.1467 28.805 32.8492 28.945 32.5342C29.47 31.4492 29.75 30.2242 29.75 28.9292C29.75 24.0992 25.83 20.1792 21 20.1792ZM24.6225 28.1767L20.895 31.6242C20.65 31.8517 20.3175 31.9742 20.0025 31.9742C19.67 31.9742 19.3375 31.8517 19.075 31.5892L17.3425 29.8567C17.0984 29.6097 16.9615 29.2765 16.9615 28.9292C16.9615 28.5819 17.0984 28.2487 17.3425 28.0017C17.85 27.4942 18.69 27.4942 19.1975 28.0017L20.0375 28.8417L22.8375 26.2517C23.38 25.7617 24.2025 25.7967 24.6925 26.3217C25.1825 26.8467 25.1475 27.6692 24.6225 28.1767Z" fill="#2A85F5"/>
<path d="M35.3498 29.8761C34.7198 30.4361 34.0373 30.9086 33.3023 31.2936C32.6723 31.6086 32.0423 30.9961 32.1473 30.2961C32.2173 29.7886 32.2523 29.2636 32.2523 28.7211C32.2523 22.4561 27.1423 17.3461 20.8773 17.3461C14.6123 17.3461 9.50232 22.4561 9.50232 28.7211C9.50232 29.5261 9.58982 30.2961 9.74732 31.0486C9.86982 31.6611 9.39732 32.2736 8.78482 32.1161C1.87232 30.4361 1.83732 19.7961 9.57232 19.2536H9.65982C4.04232 3.62609 27.7373 -2.62141 30.4498 13.7936C38.0273 14.7561 41.0898 24.8536 35.3498 29.8761Z" fill="#2A85F5"/>
</svg>
