<svg width="24" height="28" viewBox="0 0 24 28" fill="none" xmlns="http://www.w3.org/2000/svg">
<path d="M18 9V7.2C18 6.0799 18 5.51984 17.782 5.09202C17.5903 4.71569 17.2843 4.40973 16.908 4.21799C16.4802 4 15.9201 4 14.8 4H9.2C8.0799 4 7.51984 4 7.09202 4.21799C6.71569 4.40973 6.40973 4.71569 6.21799 5.09202C6 5.51984 6 6.0799 6 7.2V9M6 20C5.07003 20 4.60504 20 4.22354 19.8978C3.18827 19.6204 2.37962 18.8117 2.10222 17.7765C2 17.395 2 16.93 2 16V13.8C2 12.1198 2 11.2798 2.32698 10.638C2.6146 10.0735 3.07354 9.6146 3.63803 9.32698C4.27976 9 5.11984 9 6.8 9H17.2C18.8802 9 19.7202 9 20.362 9.32698C20.9265 9.6146 21.3854 10.0735 21.673 10.638C22 11.2798 22 12.1198 22 13.8V16C22 16.93 22 17.395 21.8978 17.7765C21.6204 18.8117 20.8117 19.6204 19.7765 19.8978C19.395 20 18.93 20 18 20M15 12.5H18M9.2 24H14.8C15.9201 24 16.4802 24 16.908 23.782C17.2843 23.5903 17.5903 23.2843 17.782 22.908C18 22.4802 18 21.9201 18 20.8V19.2C18 18.0799 18 17.5198 17.782 17.092C17.5903 16.7157 17.2843 16.4097 16.908 16.218C16.4802 16 15.9201 16 14.8 16H9.2C8.0799 16 7.51984 16 7.09202 16.218C6.71569 16.4097 6.40973 16.7157 6.21799 17.092C6 17.5198 6 18.0799 6 19.2V20.8C6 21.9201 6 22.4802 6.21799 22.908C6.40973 23.2843 6.71569 23.5903 7.09202 23.782C7.51984 24 8.07989 24 9.2 24Z" stroke="#194485" stroke-width="2" stroke-linecap="round" stroke-linejoin="round"/>
<path d="M14.8 16H9.2C8.0799 16 7.51984 16 7.09202 16.218C6.71569 16.4097 6.40973 16.7157 6.21799 17.092C6 17.5198 6 18.0799 6 19.2C6 19.6418 5.64165 20.0039 5.19989 19.996C4.76446 19.9883 4.47576 19.9654 4.22354 19.8978C3.18827 19.6204 2.37962 18.8117 2.10222 17.7765C2 17.395 2 16.93 2 16V13.8C2 12.1198 2 11.2798 2.32698 10.638C2.6146 10.0735 3.07354 9.6146 3.63803 9.32698C4.27976 9 5.11984 9 6.8 9H17.2C18.8802 9 19.7202 9 20.362 9.32698C20.9265 9.6146 21.3854 10.0735 21.673 10.638C22 11.2798 22 12.1198 22 13.8V16C22 16.93 22 17.395 21.8978 17.7765C21.6204 18.8117 20.8117 19.6204 19.7765 19.8978C19.5242 19.9654 19.2355 19.9883 18.8001 19.996C18.3584 20.0039 18 19.6418 18 19.2C18 18.0799 18 17.5198 17.782 17.092C17.5903 16.7157 17.2843 16.4097 16.908 16.218C16.4802 16 15.9201 16 14.8 16Z" fill="#194485" stroke="#194485" stroke-width="2" stroke-linecap="round" stroke-linejoin="round"/>
<path d="M15 12.5H18" stroke="#F7F8FA" stroke-width="2" stroke-linecap="round" stroke-linejoin="round"/>
</svg>
