<svg width="25" height="31" viewBox="0 0 25 31" fill="none" xmlns="http://www.w3.org/2000/svg">
<path d="M20.6216 13.9112V8.45024C20.6224 7.41135 20.4184 6.38249 20.0214 5.42246C19.6243 4.46243 19.042 3.59003 18.3076 2.85516C17.5733 2.12028 16.7013 1.53731 15.7416 1.13956C14.7819 0.741822 13.7531 0.537109 12.7142 0.537109C11.6754 0.537109 10.6466 0.741822 9.68689 1.13956C8.72715 1.53731 7.85519 2.12028 7.12084 2.85516C6.3865 3.59003 5.80418 4.46243 5.40714 5.42246C5.01009 6.38249 4.80612 7.41135 4.80688 8.45024V13.9112C3.7499 13.9588 2.75194 14.412 2.02062 15.1766C1.2893 15.9412 0.880896 16.9583 0.880371 18.0164V30.9212H24.5481V18.0164C24.5476 16.9583 24.1392 15.9412 23.4079 15.1766C22.6765 14.412 21.6786 13.9588 20.6216 13.9112ZM12.7142 3.32696C14.0725 3.32854 15.3747 3.86884 16.3351 4.82931C17.2955 5.78978 17.8357 7.09198 17.8372 8.45024V13.9016H7.59132V8.45024C7.59281 7.09198 8.13301 5.78978 9.09342 4.82931C10.0538 3.86884 11.356 3.32854 12.7142 3.32696Z" fill="#2A85F5"/>
</svg>
