<svg width="32" height="32" viewBox="0 0 32 32" fill="none" xmlns="http://www.w3.org/2000/svg">
<path d="M15.9998 2.6665C8.65317 2.6665 2.6665 8.65317 2.6665 15.9998C2.6665 23.3465 8.65317 29.3332 15.9998 29.3332C23.3465 29.3332 29.3332 23.3465 29.3332 15.9998C29.3332 8.65317 23.3465 2.6665 15.9998 2.6665ZM22.3732 12.9332L14.8132 20.4932C14.6257 20.6804 14.3715 20.7856 14.1065 20.7856C13.8415 20.7856 13.5873 20.6804 13.3998 20.4932L9.6265 16.7198C9.44053 16.5317 9.33624 16.2777 9.33624 16.0132C9.33624 15.7486 9.44053 15.4947 9.6265 15.3065C10.0132 14.9198 10.6532 14.9198 11.0398 15.3065L14.1065 18.3732L20.9598 11.5198C21.3465 11.1332 21.9865 11.1332 22.3732 11.5198C22.7598 11.9065 22.7598 12.5332 22.3732 12.9332Z" fill="#2A85F5"/>
</svg>
